<mxfile host="Electron" modified="2024-01-18T01:44:33.115Z" agent="Mozilla/5.0 (X11; Linux x86_64) AppleWebKit/537.36 (KHTML, like Gecko) draw.io/22.1.18 Chrome/120.0.6099.199 Electron/28.1.2 Safari/537.36" etag="iQp-OmHtwT4uAx2okgI4" version="22.1.18" type="device">
  <diagram id="C5RBs43oDa-KdzZeNtuy" name="Page-1">
    <mxGraphModel dx="444" dy="274" grid="1" gridSize="8" guides="1" tooltips="1" connect="1" arrows="1" fold="1" page="1" pageScale="1" pageWidth="827" pageHeight="1169" background="#262626" math="0" shadow="0">
      <root>
        <mxCell id="WIyWlLk6GJQsqaUBKTNV-0" />
        <mxCell id="WIyWlLk6GJQsqaUBKTNV-1" parent="WIyWlLk6GJQsqaUBKTNV-0" />
        <mxCell id="W0tFHgslFkEyKpeiqfC7-88" style="rounded=0;hachureGap=4;orthogonalLoop=1;jettySize=auto;html=1;fontFamily=Architects Daughter;fontSource=https%3A%2F%2Ffonts.googleapis.com%2Fcss%3Ffamily%3DArchitects%2BDaughter;fontSize=16;endArrow=none;endFill=0;shape=link;labelBackgroundColor=none;fontColor=default;sketch=1;curveFitting=1;jiggle=2;strokeColor=#0B4D6A;" parent="WIyWlLk6GJQsqaUBKTNV-1" source="W0tFHgslFkEyKpeiqfC7-0" target="W0tFHgslFkEyKpeiqfC7-87" edge="1">
          <mxGeometry relative="1" as="geometry" />
        </mxCell>
        <mxCell id="W0tFHgslFkEyKpeiqfC7-0" value="&lt;font style=&quot;font-size: 16px;&quot;&gt;UsuÃ¡rio&lt;/font&gt;" style="rounded=0;whiteSpace=wrap;html=1;labelBackgroundColor=none;sketch=1;curveFitting=1;jiggle=2;fillColor=#09555B;strokeColor=#BAC8D3;fontColor=#EEEEEE;" parent="WIyWlLk6GJQsqaUBKTNV-1" vertex="1">
          <mxGeometry x="157" y="74.98" width="120" height="40" as="geometry" />
        </mxCell>
        <mxCell id="W0tFHgslFkEyKpeiqfC7-3" style="edgeStyle=orthogonalEdgeStyle;rounded=0;orthogonalLoop=1;jettySize=auto;html=1;entryX=0;entryY=0.5;entryDx=0;entryDy=0;endArrow=none;endFill=0;labelBackgroundColor=none;fontColor=default;sketch=1;curveFitting=1;jiggle=2;strokeColor=#0B4D6A;" parent="WIyWlLk6GJQsqaUBKTNV-1" source="W0tFHgslFkEyKpeiqfC7-1" target="W0tFHgslFkEyKpeiqfC7-0" edge="1">
          <mxGeometry relative="1" as="geometry">
            <Array as="points">
              <mxPoint x="126" y="95" />
            </Array>
          </mxGeometry>
        </mxCell>
        <mxCell id="W0tFHgslFkEyKpeiqfC7-1" value="nome" style="ellipse;whiteSpace=wrap;html=1;rounded=0;labelBackgroundColor=none;sketch=1;curveFitting=1;jiggle=2;fillColor=#09555B;strokeColor=#BAC8D3;fontColor=#EEEEEE;" parent="WIyWlLk6GJQsqaUBKTNV-1" vertex="1">
          <mxGeometry x="88" y="32" width="61.13" height="32" as="geometry" />
        </mxCell>
        <mxCell id="W0tFHgslFkEyKpeiqfC7-6" style="edgeStyle=orthogonalEdgeStyle;rounded=0;hachureGap=4;orthogonalLoop=1;jettySize=auto;html=1;fontFamily=Architects Daughter;fontSource=https%3A%2F%2Ffonts.googleapis.com%2Fcss%3Ffamily%3DArchitects%2BDaughter;fontSize=16;endArrow=none;endFill=0;labelBackgroundColor=none;fontColor=default;sketch=1;curveFitting=1;jiggle=2;strokeColor=#0B4D6A;" parent="WIyWlLk6GJQsqaUBKTNV-1" source="W0tFHgslFkEyKpeiqfC7-5" target="W0tFHgslFkEyKpeiqfC7-0" edge="1">
          <mxGeometry relative="1" as="geometry">
            <Array as="points" />
          </mxGeometry>
        </mxCell>
        <mxCell id="W0tFHgslFkEyKpeiqfC7-5" value="senha" style="ellipse;whiteSpace=wrap;html=1;rounded=0;labelBackgroundColor=none;sketch=1;curveFitting=1;jiggle=2;fillColor=#09555B;strokeColor=#BAC8D3;fontColor=#EEEEEE;" parent="WIyWlLk6GJQsqaUBKTNV-1" vertex="1">
          <mxGeometry x="44" y="80.48" width="60" height="29" as="geometry" />
        </mxCell>
        <mxCell id="W0tFHgslFkEyKpeiqfC7-9" style="edgeStyle=orthogonalEdgeStyle;rounded=0;hachureGap=4;orthogonalLoop=1;jettySize=auto;html=1;entryX=1;entryY=0.5;entryDx=0;entryDy=0;fontFamily=Architects Daughter;fontSource=https%3A%2F%2Ffonts.googleapis.com%2Fcss%3Ffamily%3DArchitects%2BDaughter;fontSize=16;endArrow=none;endFill=0;labelBackgroundColor=none;fontColor=default;sketch=1;curveFitting=1;jiggle=2;strokeColor=#0B4D6A;" parent="WIyWlLk6GJQsqaUBKTNV-1" source="W0tFHgslFkEyKpeiqfC7-7" target="W0tFHgslFkEyKpeiqfC7-0" edge="1">
          <mxGeometry relative="1" as="geometry">
            <Array as="points">
              <mxPoint x="302" y="95" />
            </Array>
          </mxGeometry>
        </mxCell>
        <mxCell id="W0tFHgslFkEyKpeiqfC7-7" value="email" style="ellipse;whiteSpace=wrap;html=1;rounded=0;labelBackgroundColor=none;sketch=1;curveFitting=1;jiggle=2;fillColor=#09555B;strokeColor=#BAC8D3;fontColor=#EEEEEE;" parent="WIyWlLk6GJQsqaUBKTNV-1" vertex="1">
          <mxGeometry x="267" y="31.000000000000007" width="70" height="30" as="geometry" />
        </mxCell>
        <mxCell id="d1IbL5sfaYxFfICt-fRD-20" style="edgeStyle=orthogonalEdgeStyle;rounded=0;hachureGap=4;orthogonalLoop=1;jettySize=auto;html=1;fontFamily=Architects Daughter;fontSource=https%3A%2F%2Ffonts.googleapis.com%2Fcss%3Ffamily%3DArchitects%2BDaughter;fontSize=16;endArrow=none;endFill=0;labelBackgroundColor=none;fontColor=default;sketch=1;curveFitting=1;jiggle=2;strokeColor=#0B4D6A;" edge="1" parent="WIyWlLk6GJQsqaUBKTNV-1" source="W0tFHgslFkEyKpeiqfC7-10" target="d1IbL5sfaYxFfICt-fRD-18">
          <mxGeometry relative="1" as="geometry">
            <mxPoint x="525" y="914.4299999999998" as="sourcePoint" />
            <Array as="points">
              <mxPoint x="525" y="864" />
              <mxPoint x="525" y="864" />
            </Array>
          </mxGeometry>
        </mxCell>
        <mxCell id="d1IbL5sfaYxFfICt-fRD-37" value="1" style="edgeLabel;html=1;align=center;verticalAlign=middle;resizable=0;points=[];fontSize=20;fontFamily=Architects Daughter;labelBackgroundColor=none;sketch=1;curveFitting=1;jiggle=2;fontColor=#EEEEEE;" vertex="1" connectable="0" parent="d1IbL5sfaYxFfICt-fRD-20">
          <mxGeometry x="0.5686" y="1" relative="1" as="geometry">
            <mxPoint x="8" y="4" as="offset" />
          </mxGeometry>
        </mxCell>
        <mxCell id="d1IbL5sfaYxFfICt-fRD-25" style="edgeStyle=orthogonalEdgeStyle;rounded=0;hachureGap=4;orthogonalLoop=1;jettySize=auto;html=1;fontFamily=Architects Daughter;fontSource=https%3A%2F%2Ffonts.googleapis.com%2Fcss%3Ffamily%3DArchitects%2BDaughter;fontSize=16;entryX=1;entryY=0.5;entryDx=0;entryDy=0;endArrow=none;endFill=0;labelBackgroundColor=none;fontColor=default;sketch=1;curveFitting=1;jiggle=2;strokeColor=#0B4D6A;" edge="1" parent="WIyWlLk6GJQsqaUBKTNV-1" source="W0tFHgslFkEyKpeiqfC7-10" target="9P4Jm4MuEm7MbpDd-vYR-14">
          <mxGeometry relative="1" as="geometry">
            <mxPoint x="549.4" y="1000" as="sourcePoint" />
            <Array as="points">
              <mxPoint x="496" y="1061" />
              <mxPoint x="410" y="1061" />
            </Array>
          </mxGeometry>
        </mxCell>
        <mxCell id="d1IbL5sfaYxFfICt-fRD-36" value="N" style="edgeLabel;html=1;align=center;verticalAlign=middle;resizable=0;points=[];fontSize=20;fontFamily=Architects Daughter;labelBackgroundColor=none;sketch=1;curveFitting=1;jiggle=2;fontColor=#EEEEEE;" vertex="1" connectable="0" parent="d1IbL5sfaYxFfICt-fRD-25">
          <mxGeometry x="0.8144" y="1" relative="1" as="geometry">
            <mxPoint x="-10" y="-17" as="offset" />
          </mxGeometry>
        </mxCell>
        <mxCell id="d1IbL5sfaYxFfICt-fRD-61" style="edgeStyle=orthogonalEdgeStyle;rounded=0;hachureGap=4;orthogonalLoop=1;jettySize=auto;html=1;entryX=1;entryY=0.5;entryDx=0;entryDy=0;fontFamily=Architects Daughter;fontSource=https%3A%2F%2Ffonts.googleapis.com%2Fcss%3Ffamily%3DArchitects%2BDaughter;fontSize=16;endArrow=none;endFill=0;labelBackgroundColor=none;fontColor=default;sketch=1;curveFitting=1;jiggle=2;strokeColor=#0B4D6A;" edge="1" parent="WIyWlLk6GJQsqaUBKTNV-1" source="W0tFHgslFkEyKpeiqfC7-10" target="d1IbL5sfaYxFfICt-fRD-27">
          <mxGeometry relative="1" as="geometry" />
        </mxCell>
        <mxCell id="d1IbL5sfaYxFfICt-fRD-64" value="M" style="edgeLabel;html=1;align=center;verticalAlign=middle;resizable=0;points=[];fontSize=20;fontFamily=Architects Daughter;labelBackgroundColor=none;sketch=1;curveFitting=1;jiggle=2;fontColor=#EEEEEE;" vertex="1" connectable="0" parent="d1IbL5sfaYxFfICt-fRD-61">
          <mxGeometry x="0.5314" y="2" relative="1" as="geometry">
            <mxPoint x="-5" y="-20" as="offset" />
          </mxGeometry>
        </mxCell>
        <mxCell id="d1IbL5sfaYxFfICt-fRD-69" style="edgeStyle=orthogonalEdgeStyle;rounded=0;hachureGap=4;orthogonalLoop=1;jettySize=auto;html=1;fontFamily=Architects Daughter;fontSource=https%3A%2F%2Ffonts.googleapis.com%2Fcss%3Ffamily%3DArchitects%2BDaughter;fontSize=16;endArrow=none;endFill=0;labelBackgroundColor=none;fontColor=default;sketch=1;curveFitting=1;jiggle=2;strokeColor=#0B4D6A;" edge="1" parent="WIyWlLk6GJQsqaUBKTNV-1" source="W0tFHgslFkEyKpeiqfC7-10" target="d1IbL5sfaYxFfICt-fRD-68">
          <mxGeometry relative="1" as="geometry">
            <Array as="points">
              <mxPoint x="699" y="912" />
            </Array>
          </mxGeometry>
        </mxCell>
        <mxCell id="d1IbL5sfaYxFfICt-fRD-71" value="1" style="edgeLabel;html=1;align=center;verticalAlign=middle;resizable=0;points=[];fontSize=20;fontFamily=Architects Daughter;labelBackgroundColor=none;sketch=1;curveFitting=1;jiggle=2;fontColor=#EEEEEE;" vertex="1" connectable="0" parent="d1IbL5sfaYxFfICt-fRD-69">
          <mxGeometry x="0.6317" y="-1" relative="1" as="geometry">
            <mxPoint x="12" y="-16" as="offset" />
          </mxGeometry>
        </mxCell>
        <mxCell id="d1IbL5sfaYxFfICt-fRD-88" style="edgeStyle=orthogonalEdgeStyle;rounded=0;hachureGap=4;orthogonalLoop=1;jettySize=auto;html=1;fontFamily=Architects Daughter;fontSource=https%3A%2F%2Ffonts.googleapis.com%2Fcss%3Ffamily%3DArchitects%2BDaughter;fontSize=16;endArrow=none;endFill=0;labelBackgroundColor=none;fontColor=default;sketch=1;curveFitting=1;jiggle=2;strokeColor=#0B4D6A;" edge="1" parent="WIyWlLk6GJQsqaUBKTNV-1" source="W0tFHgslFkEyKpeiqfC7-10" target="W0tFHgslFkEyKpeiqfC7-18">
          <mxGeometry relative="1" as="geometry">
            <Array as="points">
              <mxPoint x="544" y="1053" />
            </Array>
          </mxGeometry>
        </mxCell>
        <mxCell id="W0tFHgslFkEyKpeiqfC7-10" value="&lt;font style=&quot;font-size: 16px;&quot;&gt;Cronograma&lt;/font&gt;" style="rounded=0;whiteSpace=wrap;html=1;labelBackgroundColor=none;sketch=1;curveFitting=1;jiggle=2;fillColor=#09555B;strokeColor=#BAC8D3;fontColor=#EEEEEE;" parent="WIyWlLk6GJQsqaUBKTNV-1" vertex="1">
          <mxGeometry x="438.9999999999999" y="888.9999999999999" width="120" height="40" as="geometry" />
        </mxCell>
        <mxCell id="d1IbL5sfaYxFfICt-fRD-89" style="edgeStyle=orthogonalEdgeStyle;rounded=0;hachureGap=4;orthogonalLoop=1;jettySize=auto;html=1;fontFamily=Architects Daughter;fontSource=https%3A%2F%2Ffonts.googleapis.com%2Fcss%3Ffamily%3DArchitects%2BDaughter;fontSize=16;endArrow=none;endFill=0;labelBackgroundColor=none;fontColor=default;sketch=1;curveFitting=1;jiggle=2;strokeColor=#0B4D6A;" edge="1" parent="WIyWlLk6GJQsqaUBKTNV-1" source="W0tFHgslFkEyKpeiqfC7-12" target="W0tFHgslFkEyKpeiqfC7-10">
          <mxGeometry relative="1" as="geometry">
            <Array as="points">
              <mxPoint x="544" y="1009" />
            </Array>
          </mxGeometry>
        </mxCell>
        <mxCell id="W0tFHgslFkEyKpeiqfC7-12" value="data_inÃ­cio" style="ellipse;whiteSpace=wrap;html=1;rounded=0;labelBackgroundColor=none;sketch=1;curveFitting=1;jiggle=2;fillColor=#09555B;strokeColor=#BAC8D3;fontColor=#EEEEEE;" parent="WIyWlLk6GJQsqaUBKTNV-1" vertex="1">
          <mxGeometry x="569.84" y="992" width="77" height="34" as="geometry" />
        </mxCell>
        <mxCell id="d1IbL5sfaYxFfICt-fRD-97" style="edgeStyle=orthogonalEdgeStyle;rounded=0;sketch=1;hachureGap=4;jiggle=2;curveFitting=1;orthogonalLoop=1;jettySize=auto;html=1;strokeColor=#0B4D6A;fontFamily=Architects Daughter;fontSource=https%3A%2F%2Ffonts.googleapis.com%2Fcss%3Ffamily%3DArchitects%2BDaughter;fontSize=16;endArrow=none;endFill=0;entryX=0.5;entryY=0;entryDx=0;entryDy=0;" edge="1" parent="WIyWlLk6GJQsqaUBKTNV-1" source="W0tFHgslFkEyKpeiqfC7-14" target="9P4Jm4MuEm7MbpDd-vYR-14">
          <mxGeometry relative="1" as="geometry">
            <Array as="points">
              <mxPoint x="417" y="1008" />
              <mxPoint x="357" y="1008" />
            </Array>
          </mxGeometry>
        </mxCell>
        <mxCell id="W0tFHgslFkEyKpeiqfC7-14" value="intenÃ§Ã£o_uso" style="ellipse;whiteSpace=wrap;html=1;rounded=0;labelBackgroundColor=none;sketch=1;curveFitting=1;jiggle=2;fillColor=#09555B;strokeColor=#BAC8D3;fontColor=#EEEEEE;" parent="WIyWlLk6GJQsqaUBKTNV-1" vertex="1">
          <mxGeometry x="359.12999999999994" y="959" width="114.95" height="37" as="geometry" />
        </mxCell>
        <mxCell id="d1IbL5sfaYxFfICt-fRD-90" style="edgeStyle=orthogonalEdgeStyle;rounded=0;hachureGap=4;orthogonalLoop=1;jettySize=auto;html=1;fontFamily=Architects Daughter;fontSource=https%3A%2F%2Ffonts.googleapis.com%2Fcss%3Ffamily%3DArchitects%2BDaughter;fontSize=16;endArrow=none;endFill=0;labelBackgroundColor=none;fontColor=default;sketch=1;curveFitting=1;jiggle=2;strokeColor=#0B4D6A;" edge="1" parent="WIyWlLk6GJQsqaUBKTNV-1" source="W0tFHgslFkEyKpeiqfC7-16" target="W0tFHgslFkEyKpeiqfC7-10">
          <mxGeometry relative="1" as="geometry">
            <mxPoint x="576" y="952" as="targetPoint" />
            <Array as="points">
              <mxPoint x="544" y="961" />
            </Array>
          </mxGeometry>
        </mxCell>
        <mxCell id="W0tFHgslFkEyKpeiqfC7-16" value="data_fim" style="ellipse;whiteSpace=wrap;html=1;rounded=0;labelBackgroundColor=none;sketch=1;curveFitting=1;jiggle=2;fillColor=#09555B;strokeColor=#BAC8D3;fontColor=#EEEEEE;" parent="WIyWlLk6GJQsqaUBKTNV-1" vertex="1">
          <mxGeometry x="569.84" y="944" width="77" height="35" as="geometry" />
        </mxCell>
        <mxCell id="W0tFHgslFkEyKpeiqfC7-18" value="nome" style="ellipse;whiteSpace=wrap;html=1;rounded=0;labelBackgroundColor=none;sketch=1;curveFitting=1;jiggle=2;fillColor=#09555B;strokeColor=#BAC8D3;fontColor=#EEEEEE;" parent="WIyWlLk6GJQsqaUBKTNV-1" vertex="1">
          <mxGeometry x="568" y="1038" width="60.5" height="30" as="geometry" />
        </mxCell>
        <mxCell id="d1IbL5sfaYxFfICt-fRD-54" style="edgeStyle=orthogonalEdgeStyle;rounded=0;hachureGap=4;orthogonalLoop=1;jettySize=auto;html=1;fontFamily=Architects Daughter;fontSource=https%3A%2F%2Ffonts.googleapis.com%2Fcss%3Ffamily%3DArchitects%2BDaughter;fontSize=16;endArrow=none;endFill=0;labelBackgroundColor=none;fontColor=default;sketch=1;curveFitting=1;jiggle=2;strokeColor=#0B4D6A;" edge="1" parent="WIyWlLk6GJQsqaUBKTNV-1" source="W0tFHgslFkEyKpeiqfC7-28" target="W0tFHgslFkEyKpeiqfC7-169">
          <mxGeometry relative="1" as="geometry">
            <mxPoint x="550.0000000000001" y="605.2814942528736" as="sourcePoint" />
            <mxPoint x="674.0114942528736" y="407.00401373214686" as="targetPoint" />
            <Array as="points">
              <mxPoint x="520" y="408" />
              <mxPoint x="605" y="408" />
            </Array>
          </mxGeometry>
        </mxCell>
        <mxCell id="d1IbL5sfaYxFfICt-fRD-66" value="N" style="edgeLabel;html=1;align=center;verticalAlign=middle;resizable=0;points=[];fontSize=20;fontFamily=Architects Daughter;labelBackgroundColor=none;sketch=1;curveFitting=1;jiggle=2;fontColor=#EEEEEE;" vertex="1" connectable="0" parent="d1IbL5sfaYxFfICt-fRD-54">
          <mxGeometry x="0.9345" relative="1" as="geometry">
            <mxPoint x="-17" y="4" as="offset" />
          </mxGeometry>
        </mxCell>
        <mxCell id="d1IbL5sfaYxFfICt-fRD-93" style="edgeStyle=orthogonalEdgeStyle;rounded=0;sketch=1;hachureGap=4;jiggle=2;curveFitting=1;orthogonalLoop=1;jettySize=auto;html=1;entryX=0;entryY=0.5;entryDx=0;entryDy=0;strokeColor=#0B4D6A;fontFamily=Architects Daughter;fontSource=https%3A%2F%2Ffonts.googleapis.com%2Fcss%3Ffamily%3DArchitects%2BDaughter;fontSize=16;endArrow=none;endFill=0;labelBackgroundColor=none;fontColor=default;" edge="1" parent="WIyWlLk6GJQsqaUBKTNV-1" source="W0tFHgslFkEyKpeiqfC7-28" target="d1IbL5sfaYxFfICt-fRD-92">
          <mxGeometry relative="1" as="geometry">
            <Array as="points">
              <mxPoint x="602" y="668" />
              <mxPoint x="602" y="668" />
            </Array>
          </mxGeometry>
        </mxCell>
        <mxCell id="d1IbL5sfaYxFfICt-fRD-95" value="1" style="edgeLabel;html=1;align=center;verticalAlign=middle;resizable=0;points=[];fontSize=20;fontFamily=Architects Daughter;fontColor=#EEEEEE;labelBackgroundColor=none;" vertex="1" connectable="0" parent="d1IbL5sfaYxFfICt-fRD-93">
          <mxGeometry x="0.2443" y="2" relative="1" as="geometry">
            <mxPoint x="18" y="-14" as="offset" />
          </mxGeometry>
        </mxCell>
        <mxCell id="W0tFHgslFkEyKpeiqfC7-28" value="&lt;font style=&quot;font-size: 16px;&quot;&gt;SessÃ£o_estudo_periÃ³dica&lt;/font&gt;" style="rounded=0;whiteSpace=wrap;html=1;labelBackgroundColor=none;sketch=1;curveFitting=1;jiggle=2;fillColor=#09555B;strokeColor=#BAC8D3;fontColor=#EEEEEE;" parent="WIyWlLk6GJQsqaUBKTNV-1" vertex="1">
          <mxGeometry x="359.13" y="648" width="218" height="40" as="geometry" />
        </mxCell>
        <mxCell id="d1IbL5sfaYxFfICt-fRD-63" style="edgeStyle=orthogonalEdgeStyle;rounded=0;hachureGap=4;orthogonalLoop=1;jettySize=auto;html=1;fontFamily=Architects Daughter;fontSource=https%3A%2F%2Ffonts.googleapis.com%2Fcss%3Ffamily%3DArchitects%2BDaughter;fontSize=16;endArrow=none;endFill=0;labelBackgroundColor=none;fontColor=default;sketch=1;curveFitting=1;jiggle=2;strokeColor=#0B4D6A;" edge="1" parent="WIyWlLk6GJQsqaUBKTNV-1" source="W0tFHgslFkEyKpeiqfC7-30" target="W0tFHgslFkEyKpeiqfC7-28">
          <mxGeometry relative="1" as="geometry">
            <Array as="points">
              <mxPoint x="424" y="609" />
            </Array>
          </mxGeometry>
        </mxCell>
        <mxCell id="W0tFHgslFkEyKpeiqfC7-30" value="h_fim" style="ellipse;whiteSpace=wrap;html=1;rounded=0;labelBackgroundColor=none;sketch=1;curveFitting=1;jiggle=2;fillColor=#09555B;strokeColor=#BAC8D3;fontColor=#EEEEEE;" parent="WIyWlLk6GJQsqaUBKTNV-1" vertex="1">
          <mxGeometry x="344" y="594" width="68" height="30" as="geometry" />
        </mxCell>
        <mxCell id="W0tFHgslFkEyKpeiqfC7-33" style="edgeStyle=orthogonalEdgeStyle;rounded=0;hachureGap=4;orthogonalLoop=1;jettySize=auto;html=1;fontFamily=Architects Daughter;fontSource=https%3A%2F%2Ffonts.googleapis.com%2Fcss%3Ffamily%3DArchitects%2BDaughter;fontSize=16;endArrow=none;endFill=0;labelBackgroundColor=none;fontColor=default;sketch=1;curveFitting=1;jiggle=2;strokeColor=#0B4D6A;" parent="WIyWlLk6GJQsqaUBKTNV-1" source="W0tFHgslFkEyKpeiqfC7-34" target="W0tFHgslFkEyKpeiqfC7-28" edge="1">
          <mxGeometry relative="1" as="geometry">
            <Array as="points">
              <mxPoint x="424" y="560" />
            </Array>
          </mxGeometry>
        </mxCell>
        <mxCell id="W0tFHgslFkEyKpeiqfC7-34" value="h_inÃ­cio" style="ellipse;whiteSpace=wrap;html=1;rounded=0;labelBackgroundColor=none;sketch=1;curveFitting=1;jiggle=2;fillColor=#09555B;strokeColor=#BAC8D3;fontColor=#EEEEEE;" parent="WIyWlLk6GJQsqaUBKTNV-1" vertex="1">
          <mxGeometry x="345.13" y="545.77" width="66.87" height="28.46" as="geometry" />
        </mxCell>
        <mxCell id="W0tFHgslFkEyKpeiqfC7-37" value="&lt;font style=&quot;font-size: 16px;&quot;&gt;Disciplina&lt;/font&gt;" style="rounded=0;whiteSpace=wrap;html=1;labelBackgroundColor=none;sketch=1;curveFitting=1;jiggle=2;fillColor=#09555B;strokeColor=#BAC8D3;fontColor=#EEEEEE;" parent="WIyWlLk6GJQsqaUBKTNV-1" vertex="1">
          <mxGeometry x="252" y="753.9999999999998" width="120" height="40" as="geometry" />
        </mxCell>
        <mxCell id="d1IbL5sfaYxFfICt-fRD-44" style="edgeStyle=orthogonalEdgeStyle;rounded=0;hachureGap=4;orthogonalLoop=1;jettySize=auto;html=1;fontFamily=Architects Daughter;fontSource=https%3A%2F%2Ffonts.googleapis.com%2Fcss%3Ffamily%3DArchitects%2BDaughter;fontSize=16;endArrow=none;endFill=0;labelBackgroundColor=none;fontColor=default;sketch=1;curveFitting=1;jiggle=2;strokeColor=#0B4D6A;" edge="1" parent="WIyWlLk6GJQsqaUBKTNV-1" source="W0tFHgslFkEyKpeiqfC7-39" target="d1IbL5sfaYxFfICt-fRD-27">
          <mxGeometry relative="1" as="geometry">
            <Array as="points">
              <mxPoint x="232" y="910" />
            </Array>
          </mxGeometry>
        </mxCell>
        <mxCell id="W0tFHgslFkEyKpeiqfC7-39" value="peso_tempo_estudo" style="ellipse;whiteSpace=wrap;html=1;rounded=0;labelBackgroundColor=none;sketch=1;curveFitting=1;jiggle=2;fillColor=#09555B;strokeColor=#BAC8D3;fontColor=#EEEEEE;" parent="WIyWlLk6GJQsqaUBKTNV-1" vertex="1">
          <mxGeometry x="191.9999999999999" y="976" width="136.42" height="36" as="geometry" />
        </mxCell>
        <mxCell id="d1IbL5sfaYxFfICt-fRD-50" style="edgeStyle=orthogonalEdgeStyle;rounded=0;hachureGap=4;orthogonalLoop=1;jettySize=auto;html=1;fontFamily=Architects Daughter;fontSource=https%3A%2F%2Ffonts.googleapis.com%2Fcss%3Ffamily%3DArchitects%2BDaughter;fontSize=16;endArrow=none;endFill=0;labelBackgroundColor=none;fontColor=default;sketch=1;curveFitting=1;jiggle=2;strokeColor=#0B4D6A;" edge="1" parent="WIyWlLk6GJQsqaUBKTNV-1" source="W0tFHgslFkEyKpeiqfC7-41" target="W0tFHgslFkEyKpeiqfC7-37">
          <mxGeometry relative="1" as="geometry">
            <Array as="points" />
          </mxGeometry>
        </mxCell>
        <mxCell id="W0tFHgslFkEyKpeiqfC7-41" value="nome" style="ellipse;whiteSpace=wrap;html=1;rounded=0;labelBackgroundColor=none;sketch=1;curveFitting=1;jiggle=2;fillColor=#09555B;strokeColor=#BAC8D3;fontColor=#EEEEEE;" parent="WIyWlLk6GJQsqaUBKTNV-1" vertex="1">
          <mxGeometry x="215" y="687.9999999999999" width="75" height="30" as="geometry" />
        </mxCell>
        <mxCell id="W0tFHgslFkEyKpeiqfC7-221" style="edgeStyle=orthogonalEdgeStyle;rounded=0;hachureGap=4;orthogonalLoop=1;jettySize=auto;html=1;fontFamily=Architects Daughter;fontSource=https%3A%2F%2Ffonts.googleapis.com%2Fcss%3Ffamily%3DArchitects%2BDaughter;fontSize=16;endArrow=none;endFill=0;entryX=0;entryY=0.5;entryDx=0;entryDy=0;labelBackgroundColor=none;fontColor=default;sketch=1;curveFitting=1;jiggle=2;strokeColor=#0B4D6A;" parent="WIyWlLk6GJQsqaUBKTNV-1" source="W0tFHgslFkEyKpeiqfC7-60" target="W0tFHgslFkEyKpeiqfC7-97" edge="1">
          <mxGeometry relative="1" as="geometry">
            <Array as="points">
              <mxPoint x="80" y="774" />
            </Array>
          </mxGeometry>
        </mxCell>
        <mxCell id="W0tFHgslFkEyKpeiqfC7-232" value="M" style="edgeLabel;html=1;align=center;verticalAlign=middle;resizable=0;points=[];fontSize=20;fontFamily=Architects Daughter;labelBackgroundColor=none;rounded=0;sketch=1;curveFitting=1;jiggle=2;fontColor=#EEEEEE;" parent="W0tFHgslFkEyKpeiqfC7-221" vertex="1" connectable="0">
          <mxGeometry x="0.8878" relative="1" as="geometry">
            <mxPoint x="22" y="-17" as="offset" />
          </mxGeometry>
        </mxCell>
        <mxCell id="W0tFHgslFkEyKpeiqfC7-222" style="edgeStyle=orthogonalEdgeStyle;rounded=0;hachureGap=4;orthogonalLoop=1;jettySize=auto;html=1;entryX=0;entryY=0.5;entryDx=0;entryDy=0;fontFamily=Architects Daughter;fontSource=https%3A%2F%2Ffonts.googleapis.com%2Fcss%3Ffamily%3DArchitects%2BDaughter;fontSize=16;endArrow=none;endFill=0;labelBackgroundColor=none;fontColor=default;sketch=1;curveFitting=1;jiggle=2;strokeColor=#0B4D6A;" parent="WIyWlLk6GJQsqaUBKTNV-1" source="W0tFHgslFkEyKpeiqfC7-60" target="W0tFHgslFkEyKpeiqfC7-102" edge="1">
          <mxGeometry relative="1" as="geometry">
            <Array as="points">
              <mxPoint x="80" y="398" />
            </Array>
          </mxGeometry>
        </mxCell>
        <mxCell id="W0tFHgslFkEyKpeiqfC7-225" value="N" style="edgeLabel;html=1;align=center;verticalAlign=middle;resizable=0;points=[];fontSize=20;fontFamily=Architects Daughter;labelBackgroundColor=none;rounded=0;sketch=1;curveFitting=1;jiggle=2;fontColor=#EEEEEE;" parent="W0tFHgslFkEyKpeiqfC7-222" vertex="1" connectable="0">
          <mxGeometry x="0.7031" relative="1" as="geometry">
            <mxPoint x="11" y="-16" as="offset" />
          </mxGeometry>
        </mxCell>
        <mxCell id="W0tFHgslFkEyKpeiqfC7-60" value="&lt;font style=&quot;font-size: 16px;&quot;&gt;Aluno&lt;/font&gt;" style="rounded=0;whiteSpace=wrap;html=1;labelBackgroundColor=none;sketch=1;curveFitting=1;jiggle=2;fillColor=#09555B;strokeColor=#BAC8D3;fontColor=#EEEEEE;" parent="WIyWlLk6GJQsqaUBKTNV-1" vertex="1">
          <mxGeometry x="54" y="260" width="120" height="40" as="geometry" />
        </mxCell>
        <mxCell id="W0tFHgslFkEyKpeiqfC7-63" style="edgeStyle=orthogonalEdgeStyle;rounded=0;hachureGap=4;orthogonalLoop=1;jettySize=auto;html=1;fontFamily=Architects Daughter;fontSource=https%3A%2F%2Ffonts.googleapis.com%2Fcss%3Ffamily%3DArchitects%2BDaughter;fontSize=16;endArrow=none;endFill=0;labelBackgroundColor=none;fontColor=default;sketch=1;curveFitting=1;jiggle=2;strokeColor=#0B4D6A;" parent="WIyWlLk6GJQsqaUBKTNV-1" source="W0tFHgslFkEyKpeiqfC7-64" edge="1" target="W0tFHgslFkEyKpeiqfC7-60">
          <mxGeometry relative="1" as="geometry">
            <mxPoint x="120" y="260" as="targetPoint" />
            <Array as="points">
              <mxPoint x="78" y="248" />
              <mxPoint x="78" y="248" />
            </Array>
          </mxGeometry>
        </mxCell>
        <mxCell id="W0tFHgslFkEyKpeiqfC7-64" value="instituicao_ensino" style="ellipse;whiteSpace=wrap;html=1;rounded=0;labelBackgroundColor=none;sketch=1;curveFitting=1;jiggle=2;fillColor=#09555B;strokeColor=#BAC8D3;fontColor=#EEEEEE;" parent="WIyWlLk6GJQsqaUBKTNV-1" vertex="1">
          <mxGeometry x="18" y="160" width="120" height="38" as="geometry" />
        </mxCell>
        <mxCell id="W0tFHgslFkEyKpeiqfC7-69" value="&lt;font style=&quot;font-size: 16px;&quot;&gt;Orientador&lt;/font&gt;" style="rounded=0;whiteSpace=wrap;html=1;labelBackgroundColor=none;sketch=1;curveFitting=1;jiggle=2;fillColor=#09555B;strokeColor=#BAC8D3;fontColor=#EEEEEE;" parent="WIyWlLk6GJQsqaUBKTNV-1" vertex="1">
          <mxGeometry x="265.69" y="260" width="120" height="40" as="geometry" />
        </mxCell>
        <mxCell id="W0tFHgslFkEyKpeiqfC7-70" style="edgeStyle=orthogonalEdgeStyle;rounded=0;hachureGap=4;orthogonalLoop=1;jettySize=auto;html=1;fontFamily=Architects Daughter;fontSource=https%3A%2F%2Ffonts.googleapis.com%2Fcss%3Ffamily%3DArchitects%2BDaughter;fontSize=16;endArrow=none;endFill=0;labelBackgroundColor=none;fontColor=default;sketch=1;curveFitting=1;jiggle=2;strokeColor=#0B4D6A;" parent="WIyWlLk6GJQsqaUBKTNV-1" source="W0tFHgslFkEyKpeiqfC7-71" target="W0tFHgslFkEyKpeiqfC7-69" edge="1">
          <mxGeometry relative="1" as="geometry">
            <Array as="points">
              <mxPoint x="368" y="80" />
            </Array>
          </mxGeometry>
        </mxCell>
        <mxCell id="W0tFHgslFkEyKpeiqfC7-71" value="conta_telegram" style="ellipse;whiteSpace=wrap;html=1;rounded=0;labelBackgroundColor=none;sketch=1;curveFitting=1;jiggle=2;fillColor=#09555B;strokeColor=#BAC8D3;fontColor=#EEEEEE;" parent="WIyWlLk6GJQsqaUBKTNV-1" vertex="1">
          <mxGeometry x="390.12" y="67" width="101.76" height="32" as="geometry" />
        </mxCell>
        <mxCell id="W0tFHgslFkEyKpeiqfC7-75" value="" style="edgeStyle=orthogonalEdgeStyle;rounded=0;hachureGap=4;orthogonalLoop=1;jettySize=auto;html=1;fontFamily=Architects Daughter;fontSource=https%3A%2F%2Ffonts.googleapis.com%2Fcss%3Ffamily%3DArchitects%2BDaughter;fontSize=16;endArrow=none;endFill=0;labelBackgroundColor=none;fontColor=default;exitX=0;exitY=0.5;exitDx=0;exitDy=0;sketch=1;curveFitting=1;jiggle=2;strokeColor=#0B4D6A;" parent="WIyWlLk6GJQsqaUBKTNV-1" source="W0tFHgslFkEyKpeiqfC7-72" target="W0tFHgslFkEyKpeiqfC7-69" edge="1">
          <mxGeometry relative="1" as="geometry">
            <Array as="points">
              <mxPoint x="368" y="224" />
            </Array>
          </mxGeometry>
        </mxCell>
        <mxCell id="W0tFHgslFkEyKpeiqfC7-72" value="telefone" style="ellipse;whiteSpace=wrap;html=1;rounded=0;labelBackgroundColor=none;sketch=1;curveFitting=1;jiggle=2;fillColor=#09555B;strokeColor=#BAC8D3;fontColor=#EEEEEE;" parent="WIyWlLk6GJQsqaUBKTNV-1" vertex="1">
          <mxGeometry x="391" y="207.04" width="70" height="32" as="geometry" />
        </mxCell>
        <mxCell id="W0tFHgslFkEyKpeiqfC7-84" style="edgeStyle=orthogonalEdgeStyle;rounded=0;hachureGap=4;orthogonalLoop=1;jettySize=auto;html=1;fontFamily=Architects Daughter;fontSource=https%3A%2F%2Ffonts.googleapis.com%2Fcss%3Ffamily%3DArchitects%2BDaughter;fontSize=16;endArrow=none;endFill=0;labelBackgroundColor=none;fontColor=default;sketch=1;curveFitting=1;jiggle=2;strokeColor=#0B4D6A;" parent="WIyWlLk6GJQsqaUBKTNV-1" source="W0tFHgslFkEyKpeiqfC7-76" target="W0tFHgslFkEyKpeiqfC7-69" edge="1">
          <mxGeometry relative="1" as="geometry">
            <mxPoint x="210.5" y="310" as="targetPoint" />
            <Array as="points">
              <mxPoint x="368" y="176" />
            </Array>
          </mxGeometry>
        </mxCell>
        <mxCell id="W0tFHgslFkEyKpeiqfC7-76" value="conta_instagram" style="ellipse;whiteSpace=wrap;html=1;rounded=0;labelBackgroundColor=none;sketch=1;curveFitting=1;jiggle=2;fillColor=#09555B;strokeColor=#BAC8D3;fontColor=#EEEEEE;" parent="WIyWlLk6GJQsqaUBKTNV-1" vertex="1">
          <mxGeometry x="389" y="163" width="112" height="32.52" as="geometry" />
        </mxCell>
        <mxCell id="W0tFHgslFkEyKpeiqfC7-79" value="" style="edgeStyle=orthogonalEdgeStyle;rounded=0;hachureGap=4;orthogonalLoop=1;jettySize=auto;html=1;fontFamily=Architects Daughter;fontSource=https%3A%2F%2Ffonts.googleapis.com%2Fcss%3Ffamily%3DArchitects%2BDaughter;fontSize=16;endArrow=none;endFill=0;labelBackgroundColor=none;fontColor=default;sketch=1;curveFitting=1;jiggle=2;strokeColor=#0B4D6A;" parent="WIyWlLk6GJQsqaUBKTNV-1" target="W0tFHgslFkEyKpeiqfC7-69" edge="1" source="W0tFHgslFkEyKpeiqfC7-77">
          <mxGeometry relative="1" as="geometry">
            <Array as="points">
              <mxPoint x="368" y="128" />
            </Array>
            <mxPoint x="420.54999999999905" y="95" as="sourcePoint" />
            <mxPoint x="384.69000000000005" y="280" as="targetPoint" />
          </mxGeometry>
        </mxCell>
        <mxCell id="W0tFHgslFkEyKpeiqfC7-77" value="conta_discord" style="ellipse;whiteSpace=wrap;html=1;rounded=0;labelBackgroundColor=none;sketch=1;curveFitting=1;jiggle=2;fillColor=#09555B;strokeColor=#BAC8D3;fontColor=#EEEEEE;" parent="WIyWlLk6GJQsqaUBKTNV-1" vertex="1">
          <mxGeometry x="389" y="115" width="104" height="29.97" as="geometry" />
        </mxCell>
        <mxCell id="W0tFHgslFkEyKpeiqfC7-89" style="rounded=0;hachureGap=4;orthogonalLoop=1;jettySize=auto;html=1;fontFamily=Architects Daughter;fontSource=https%3A%2F%2Ffonts.googleapis.com%2Fcss%3Ffamily%3DArchitects%2BDaughter;fontSize=16;endArrow=none;endFill=0;labelBackgroundColor=none;fontColor=default;sketch=1;curveFitting=1;jiggle=2;strokeColor=#0B4D6A;" parent="WIyWlLk6GJQsqaUBKTNV-1" source="W0tFHgslFkEyKpeiqfC7-87" edge="1">
          <mxGeometry relative="1" as="geometry">
            <mxPoint x="120" y="260" as="targetPoint" />
          </mxGeometry>
        </mxCell>
        <mxCell id="W0tFHgslFkEyKpeiqfC7-90" style="rounded=0;hachureGap=4;orthogonalLoop=1;jettySize=auto;html=1;entryX=0.5;entryY=0;entryDx=0;entryDy=0;fontFamily=Architects Daughter;fontSource=https%3A%2F%2Ffonts.googleapis.com%2Fcss%3Ffamily%3DArchitects%2BDaughter;fontSize=16;endArrow=none;endFill=0;curved=0;labelBackgroundColor=none;fontColor=default;sketch=1;curveFitting=1;jiggle=2;strokeColor=#0B4D6A;" parent="WIyWlLk6GJQsqaUBKTNV-1" source="W0tFHgslFkEyKpeiqfC7-87" target="W0tFHgslFkEyKpeiqfC7-69" edge="1">
          <mxGeometry relative="1" as="geometry" />
        </mxCell>
        <mxCell id="W0tFHgslFkEyKpeiqfC7-87" value="d" style="ellipse;whiteSpace=wrap;html=1;aspect=fixed;hachureGap=4;fontFamily=Architects Daughter;fontSource=https%3A%2F%2Ffonts.googleapis.com%2Fcss%3Ffamily%3DArchitects%2BDaughter;fontSize=20;labelBackgroundColor=none;rounded=0;sketch=1;curveFitting=1;jiggle=2;fillColor=#09555B;strokeColor=#BAC8D3;fontColor=#EEEEEE;" parent="WIyWlLk6GJQsqaUBKTNV-1" vertex="1">
          <mxGeometry x="201" y="144.98" width="30" height="30" as="geometry" />
        </mxCell>
        <mxCell id="9P4Jm4MuEm7MbpDd-vYR-28" style="edgeStyle=orthogonalEdgeStyle;hachureGap=4;orthogonalLoop=1;jettySize=auto;html=1;entryX=0;entryY=0.5;entryDx=0;entryDy=0;fontFamily=Architects Daughter;fontSource=https%3A%2F%2Ffonts.googleapis.com%2Fcss%3Ffamily%3DArchitects%2BDaughter;fontSize=16;rounded=0;curved=0;endArrow=none;endFill=0;labelBackgroundColor=none;fontColor=default;exitX=1;exitY=0.5;exitDx=0;exitDy=0;sketch=1;curveFitting=1;jiggle=2;strokeColor=#0B4D6A;" parent="WIyWlLk6GJQsqaUBKTNV-1" source="W0tFHgslFkEyKpeiqfC7-97" target="W0tFHgslFkEyKpeiqfC7-37" edge="1">
          <mxGeometry relative="1" as="geometry">
            <Array as="points">
              <mxPoint x="222" y="774" />
            </Array>
          </mxGeometry>
        </mxCell>
        <mxCell id="9P4Jm4MuEm7MbpDd-vYR-30" value="N" style="edgeLabel;html=1;align=center;verticalAlign=middle;resizable=0;points=[];fontSize=20;fontFamily=Architects Daughter;labelBackgroundColor=none;sketch=1;curveFitting=1;jiggle=2;fontColor=#EEEEEE;" parent="9P4Jm4MuEm7MbpDd-vYR-28" vertex="1" connectable="0">
          <mxGeometry x="-0.8093" relative="1" as="geometry">
            <mxPoint x="2" y="-17" as="offset" />
          </mxGeometry>
        </mxCell>
        <mxCell id="W0tFHgslFkEyKpeiqfC7-97" value="&lt;font style=&quot;font-size: 16px;&quot;&gt;PAGA&lt;/font&gt;" style="rhombus;whiteSpace=wrap;html=1;hachureGap=4;fontFamily=Architects Daughter;fontSource=https%3A%2F%2Ffonts.googleapis.com%2Fcss%3Ffamily%3DArchitects%2BDaughter;fontSize=20;labelBackgroundColor=none;rounded=0;sketch=1;curveFitting=1;jiggle=2;fillColor=#09555B;strokeColor=#BAC8D3;fontColor=#EEEEEE;" parent="WIyWlLk6GJQsqaUBKTNV-1" vertex="1">
          <mxGeometry x="112" y="744.0000000000001" width="106" height="60" as="geometry" />
        </mxCell>
        <mxCell id="W0tFHgslFkEyKpeiqfC7-235" style="edgeStyle=orthogonalEdgeStyle;rounded=0;hachureGap=4;orthogonalLoop=1;jettySize=auto;html=1;fontFamily=Architects Daughter;fontSource=https%3A%2F%2Ffonts.googleapis.com%2Fcss%3Ffamily%3DArchitects%2BDaughter;fontSize=16;entryX=0.202;entryY=1.003;entryDx=0;entryDy=0;entryPerimeter=0;endArrow=none;endFill=0;labelBackgroundColor=none;fontColor=default;sketch=1;curveFitting=1;jiggle=2;strokeColor=#0B4D6A;" parent="WIyWlLk6GJQsqaUBKTNV-1" source="W0tFHgslFkEyKpeiqfC7-122" target="W0tFHgslFkEyKpeiqfC7-60" edge="1">
          <mxGeometry relative="1" as="geometry">
            <mxPoint x="90" y="540" as="targetPoint" />
            <Array as="points">
              <mxPoint x="80" y="570" />
              <mxPoint x="78" y="570" />
            </Array>
          </mxGeometry>
        </mxCell>
        <mxCell id="W0tFHgslFkEyKpeiqfC7-236" value="1" style="edgeLabel;html=1;align=center;verticalAlign=middle;resizable=0;points=[];fontSize=20;fontFamily=Architects Daughter;labelBackgroundColor=none;rounded=0;sketch=1;curveFitting=1;jiggle=2;fontColor=#EEEEEE;" parent="W0tFHgslFkEyKpeiqfC7-235" vertex="1" connectable="0">
          <mxGeometry x="-0.5475" y="3" relative="1" as="geometry">
            <mxPoint x="250" y="9" as="offset" />
          </mxGeometry>
        </mxCell>
        <mxCell id="d1IbL5sfaYxFfICt-fRD-41" style="edgeStyle=orthogonalEdgeStyle;rounded=0;hachureGap=4;orthogonalLoop=1;jettySize=auto;html=1;fontFamily=Architects Daughter;fontSource=https%3A%2F%2Ffonts.googleapis.com%2Fcss%3Ffamily%3DArchitects%2BDaughter;fontSize=16;endArrow=none;endFill=0;labelBackgroundColor=none;fontColor=default;sketch=1;curveFitting=1;jiggle=2;strokeColor=#0B4D6A;" edge="1" parent="WIyWlLk6GJQsqaUBKTNV-1" source="W0tFHgslFkEyKpeiqfC7-122" target="W0tFHgslFkEyKpeiqfC7-10">
          <mxGeometry relative="1" as="geometry">
            <mxPoint x="648" y="976" as="targetPoint" />
            <Array as="points">
              <mxPoint x="520" y="1126" />
            </Array>
          </mxGeometry>
        </mxCell>
        <mxCell id="d1IbL5sfaYxFfICt-fRD-46" value="N" style="edgeLabel;html=1;align=center;verticalAlign=middle;resizable=0;points=[];fontSize=20;fontFamily=Architects Daughter;labelBackgroundColor=none;sketch=1;curveFitting=1;jiggle=2;fontColor=#EEEEEE;" vertex="1" connectable="0" parent="d1IbL5sfaYxFfICt-fRD-41">
          <mxGeometry x="-0.8982" y="1" relative="1" as="geometry">
            <mxPoint x="-3" y="18" as="offset" />
          </mxGeometry>
        </mxCell>
        <mxCell id="W0tFHgslFkEyKpeiqfC7-122" value="&lt;font style=&quot;font-size: 16px;&quot;&gt;POSSUI&lt;/font&gt;" style="rhombus;whiteSpace=wrap;html=1;hachureGap=4;fontFamily=Architects Daughter;fontSource=https%3A%2F%2Ffonts.googleapis.com%2Fcss%3Ffamily%3DArchitects%2BDaughter;fontSize=20;labelBackgroundColor=none;rounded=0;sketch=1;curveFitting=1;jiggle=2;fillColor=#09555B;strokeColor=#BAC8D3;fontColor=#EEEEEE;" parent="WIyWlLk6GJQsqaUBKTNV-1" vertex="1">
          <mxGeometry x="391.9999999999999" y="1096" width="106" height="60" as="geometry" />
        </mxCell>
        <mxCell id="W0tFHgslFkEyKpeiqfC7-161" style="edgeStyle=orthogonalEdgeStyle;rounded=0;hachureGap=4;orthogonalLoop=1;jettySize=auto;html=1;fontFamily=Architects Daughter;fontSource=https%3A%2F%2Ffonts.googleapis.com%2Fcss%3Ffamily%3DArchitects%2BDaughter;fontSize=16;endArrow=none;endFill=0;labelBackgroundColor=none;fontColor=default;sketch=1;curveFitting=1;jiggle=2;strokeColor=#0B4D6A;" parent="WIyWlLk6GJQsqaUBKTNV-1" source="W0tFHgslFkEyKpeiqfC7-149" target="W0tFHgslFkEyKpeiqfC7-159" edge="1">
          <mxGeometry relative="1" as="geometry">
            <Array as="points">
              <mxPoint x="696" y="184" />
              <mxPoint x="696" y="81" />
            </Array>
          </mxGeometry>
        </mxCell>
        <mxCell id="W0tFHgslFkEyKpeiqfC7-163" style="edgeStyle=orthogonalEdgeStyle;rounded=0;hachureGap=4;orthogonalLoop=1;jettySize=auto;html=1;fontFamily=Architects Daughter;fontSource=https%3A%2F%2Ffonts.googleapis.com%2Fcss%3Ffamily%3DArchitects%2BDaughter;fontSize=16;endArrow=none;endFill=0;labelBackgroundColor=none;fontColor=default;sketch=1;curveFitting=1;jiggle=2;strokeColor=#0B4D6A;" parent="WIyWlLk6GJQsqaUBKTNV-1" source="W0tFHgslFkEyKpeiqfC7-149" target="W0tFHgslFkEyKpeiqfC7-160" edge="1">
          <mxGeometry relative="1" as="geometry">
            <Array as="points">
              <mxPoint x="696" y="184" />
              <mxPoint x="696" y="31" />
            </Array>
          </mxGeometry>
        </mxCell>
        <mxCell id="W0tFHgslFkEyKpeiqfC7-164" style="edgeStyle=orthogonalEdgeStyle;rounded=0;hachureGap=4;orthogonalLoop=1;jettySize=auto;html=1;fontFamily=Architects Daughter;fontSource=https%3A%2F%2Ffonts.googleapis.com%2Fcss%3Ffamily%3DArchitects%2BDaughter;fontSize=16;endArrow=none;endFill=0;labelBackgroundColor=none;fontColor=default;sketch=1;curveFitting=1;jiggle=2;strokeColor=#0B4D6A;" parent="WIyWlLk6GJQsqaUBKTNV-1" source="W0tFHgslFkEyKpeiqfC7-149" target="W0tFHgslFkEyKpeiqfC7-157" edge="1">
          <mxGeometry relative="1" as="geometry">
            <Array as="points">
              <mxPoint x="696" y="184" />
              <mxPoint x="696" y="128" />
            </Array>
          </mxGeometry>
        </mxCell>
        <mxCell id="W0tFHgslFkEyKpeiqfC7-165" style="edgeStyle=orthogonalEdgeStyle;rounded=0;hachureGap=4;orthogonalLoop=1;jettySize=auto;html=1;fontFamily=Architects Daughter;fontSource=https%3A%2F%2Ffonts.googleapis.com%2Fcss%3Ffamily%3DArchitects%2BDaughter;fontSize=16;endArrow=none;endFill=0;labelBackgroundColor=none;fontColor=default;sketch=1;curveFitting=1;jiggle=2;strokeColor=#0B4D6A;" parent="WIyWlLk6GJQsqaUBKTNV-1" source="W0tFHgslFkEyKpeiqfC7-149" target="W0tFHgslFkEyKpeiqfC7-156" edge="1">
          <mxGeometry relative="1" as="geometry">
            <Array as="points">
              <mxPoint x="696" y="184" />
              <mxPoint x="696" y="31" />
            </Array>
          </mxGeometry>
        </mxCell>
        <mxCell id="W0tFHgslFkEyKpeiqfC7-166" style="edgeStyle=orthogonalEdgeStyle;rounded=0;hachureGap=4;orthogonalLoop=1;jettySize=auto;html=1;fontFamily=Architects Daughter;fontSource=https%3A%2F%2Ffonts.googleapis.com%2Fcss%3Ffamily%3DArchitects%2BDaughter;fontSize=16;endArrow=none;endFill=0;labelBackgroundColor=none;fontColor=default;sketch=1;curveFitting=1;jiggle=2;strokeColor=#0B4D6A;" parent="WIyWlLk6GJQsqaUBKTNV-1" source="W0tFHgslFkEyKpeiqfC7-149" target="W0tFHgslFkEyKpeiqfC7-155" edge="1">
          <mxGeometry relative="1" as="geometry">
            <Array as="points">
              <mxPoint x="696" y="184" />
              <mxPoint x="696" y="128" />
            </Array>
          </mxGeometry>
        </mxCell>
        <mxCell id="W0tFHgslFkEyKpeiqfC7-167" style="edgeStyle=orthogonalEdgeStyle;rounded=0;hachureGap=4;orthogonalLoop=1;jettySize=auto;html=1;fontFamily=Architects Daughter;fontSource=https%3A%2F%2Ffonts.googleapis.com%2Fcss%3Ffamily%3DArchitects%2BDaughter;fontSize=16;endArrow=none;endFill=0;labelBackgroundColor=none;fontColor=default;sketch=1;curveFitting=1;jiggle=2;strokeColor=#0B4D6A;" parent="WIyWlLk6GJQsqaUBKTNV-1" source="W0tFHgslFkEyKpeiqfC7-149" target="W0tFHgslFkEyKpeiqfC7-150" edge="1">
          <mxGeometry relative="1" as="geometry">
            <Array as="points">
              <mxPoint x="704" y="184" />
              <mxPoint x="704" y="184" />
            </Array>
          </mxGeometry>
        </mxCell>
        <mxCell id="W0tFHgslFkEyKpeiqfC7-149" value="&lt;font style=&quot;font-size: 16px;&quot;&gt;Dia_semana&lt;/font&gt;" style="rounded=0;whiteSpace=wrap;html=1;labelBackgroundColor=none;sketch=1;curveFitting=1;jiggle=2;fillColor=#09555B;strokeColor=#BAC8D3;fontColor=#EEEEEE;" parent="WIyWlLk6GJQsqaUBKTNV-1" vertex="1">
          <mxGeometry x="530.9999999999998" y="167.99999999999991" width="145.58" height="40" as="geometry" />
        </mxCell>
        <mxCell id="W0tFHgslFkEyKpeiqfC7-150" value="domingo" style="ellipse;whiteSpace=wrap;html=1;rounded=0;labelBackgroundColor=none;sketch=1;curveFitting=1;jiggle=2;fillColor=#09555B;strokeColor=#BAC8D3;fontColor=#EEEEEE;" parent="WIyWlLk6GJQsqaUBKTNV-1" vertex="1">
          <mxGeometry x="714.0599999999998" y="165.02" width="71.32" height="32.98" as="geometry" />
        </mxCell>
        <mxCell id="W0tFHgslFkEyKpeiqfC7-155" value="quarta" style="ellipse;whiteSpace=wrap;html=1;rounded=0;labelBackgroundColor=none;sketch=1;curveFitting=1;jiggle=2;fillColor=#09555B;strokeColor=#BAC8D3;fontColor=#EEEEEE;" parent="WIyWlLk6GJQsqaUBKTNV-1" vertex="1">
          <mxGeometry x="600" y="104" width="75" height="31" as="geometry" />
        </mxCell>
        <mxCell id="W0tFHgslFkEyKpeiqfC7-156" value="segunda" style="ellipse;whiteSpace=wrap;html=1;rounded=0;labelBackgroundColor=none;sketch=1;curveFitting=1;jiggle=2;fillColor=#09555B;strokeColor=#BAC8D3;fontColor=#EEEEEE;" parent="WIyWlLk6GJQsqaUBKTNV-1" vertex="1">
          <mxGeometry x="600" y="16" width="75" height="29.98" as="geometry" />
        </mxCell>
        <mxCell id="W0tFHgslFkEyKpeiqfC7-157" value="sÃ¡bado" style="ellipse;whiteSpace=wrap;html=1;rounded=0;labelBackgroundColor=none;sketch=1;curveFitting=1;jiggle=2;fillColor=#09555B;strokeColor=#BAC8D3;fontColor=#EEEEEE;" parent="WIyWlLk6GJQsqaUBKTNV-1" vertex="1">
          <mxGeometry x="714.0600000000001" y="112" width="70.87" height="31" as="geometry" />
        </mxCell>
        <mxCell id="W0tFHgslFkEyKpeiqfC7-168" style="edgeStyle=orthogonalEdgeStyle;rounded=0;hachureGap=4;orthogonalLoop=1;jettySize=auto;html=1;fontFamily=Architects Daughter;fontSource=https%3A%2F%2Ffonts.googleapis.com%2Fcss%3Ffamily%3DArchitects%2BDaughter;fontSize=16;endArrow=none;endFill=0;labelBackgroundColor=none;fontColor=default;sketch=1;curveFitting=1;jiggle=2;strokeColor=#0B4D6A;" parent="WIyWlLk6GJQsqaUBKTNV-1" source="W0tFHgslFkEyKpeiqfC7-158" target="W0tFHgslFkEyKpeiqfC7-149" edge="1">
          <mxGeometry relative="1" as="geometry">
            <Array as="points">
              <mxPoint x="696" y="81" />
              <mxPoint x="696" y="184" />
            </Array>
          </mxGeometry>
        </mxCell>
        <mxCell id="W0tFHgslFkEyKpeiqfC7-158" value="terÃ§a" style="ellipse;whiteSpace=wrap;html=1;rounded=0;labelBackgroundColor=none;sketch=1;curveFitting=1;jiggle=2;fillColor=#09555B;strokeColor=#BAC8D3;fontColor=#EEEEEE;" parent="WIyWlLk6GJQsqaUBKTNV-1" vertex="1">
          <mxGeometry x="616" y="61" width="59" height="33" as="geometry" />
        </mxCell>
        <mxCell id="W0tFHgslFkEyKpeiqfC7-159" value="sexta" style="ellipse;whiteSpace=wrap;html=1;rounded=0;labelBackgroundColor=none;sketch=1;curveFitting=1;jiggle=2;fillColor=#09555B;strokeColor=#BAC8D3;fontColor=#EEEEEE;" parent="WIyWlLk6GJQsqaUBKTNV-1" vertex="1">
          <mxGeometry x="713" y="67" width="62.87" height="28" as="geometry" />
        </mxCell>
        <mxCell id="W0tFHgslFkEyKpeiqfC7-160" value="quinta" style="ellipse;whiteSpace=wrap;html=1;rounded=0;labelBackgroundColor=none;sketch=1;curveFitting=1;jiggle=2;fillColor=#09555B;strokeColor=#BAC8D3;fontColor=#EEEEEE;" parent="WIyWlLk6GJQsqaUBKTNV-1" vertex="1">
          <mxGeometry x="714.06" y="16" width="61.94" height="29" as="geometry" />
        </mxCell>
        <mxCell id="W0tFHgslFkEyKpeiqfC7-173" style="edgeStyle=orthogonalEdgeStyle;rounded=0;hachureGap=4;orthogonalLoop=1;jettySize=auto;html=1;entryX=0.5;entryY=1;entryDx=0;entryDy=0;fontFamily=Architects Daughter;fontSource=https%3A%2F%2Ffonts.googleapis.com%2Fcss%3Ffamily%3DArchitects%2BDaughter;fontSize=16;endArrow=none;endFill=0;exitX=0.5;exitY=0;exitDx=0;exitDy=0;labelBackgroundColor=none;fontColor=default;sketch=1;curveFitting=1;jiggle=2;strokeColor=#0B4D6A;" parent="WIyWlLk6GJQsqaUBKTNV-1" source="W0tFHgslFkEyKpeiqfC7-169" target="W0tFHgslFkEyKpeiqfC7-149" edge="1">
          <mxGeometry relative="1" as="geometry" />
        </mxCell>
        <mxCell id="W0tFHgslFkEyKpeiqfC7-175" value="1" style="edgeLabel;html=1;align=center;verticalAlign=middle;resizable=0;points=[];fontSize=20;fontFamily=Architects Daughter;labelBackgroundColor=none;rounded=0;sketch=1;curveFitting=1;jiggle=2;fontColor=#EEEEEE;" parent="W0tFHgslFkEyKpeiqfC7-173" vertex="1" connectable="0">
          <mxGeometry x="-0.4743" y="2" relative="1" as="geometry">
            <mxPoint x="-9" as="offset" />
          </mxGeometry>
        </mxCell>
        <mxCell id="W0tFHgslFkEyKpeiqfC7-169" value="&lt;font style=&quot;font-size: 16px;&quot;&gt;OCORRE_EM&lt;/font&gt;" style="rhombus;whiteSpace=wrap;html=1;hachureGap=4;fontFamily=Architects Daughter;fontSource=https%3A%2F%2Ffonts.googleapis.com%2Fcss%3Ffamily%3DArchitects%2BDaughter;fontSize=20;labelBackgroundColor=none;rounded=0;sketch=1;curveFitting=1;jiggle=2;fillColor=#09555B;strokeColor=#BAC8D3;fontColor=#EEEEEE;" parent="WIyWlLk6GJQsqaUBKTNV-1" vertex="1">
          <mxGeometry x="528" y="256" width="152" height="90" as="geometry" />
        </mxCell>
        <mxCell id="W0tFHgslFkEyKpeiqfC7-198" style="edgeStyle=orthogonalEdgeStyle;rounded=0;hachureGap=4;orthogonalLoop=1;jettySize=auto;html=1;fontFamily=Architects Daughter;fontSource=https%3A%2F%2Ffonts.googleapis.com%2Fcss%3Ffamily%3DArchitects%2BDaughter;fontSize=16;endArrow=none;endFill=0;labelBackgroundColor=none;fontColor=default;sketch=1;curveFitting=1;jiggle=2;strokeColor=#0B4D6A;" parent="WIyWlLk6GJQsqaUBKTNV-1" source="W0tFHgslFkEyKpeiqfC7-197" target="W0tFHgslFkEyKpeiqfC7-0" edge="1">
          <mxGeometry relative="1" as="geometry">
            <mxPoint x="247" y="60" as="targetPoint" />
            <Array as="points">
              <mxPoint x="217" y="70" />
              <mxPoint x="217" y="70" />
            </Array>
          </mxGeometry>
        </mxCell>
        <mxCell id="W0tFHgslFkEyKpeiqfC7-197" value="sobrenome" style="ellipse;whiteSpace=wrap;html=1;rounded=0;labelBackgroundColor=none;sketch=1;curveFitting=1;jiggle=2;fillColor=#09555B;strokeColor=#BAC8D3;fontColor=#EEEEEE;" parent="WIyWlLk6GJQsqaUBKTNV-1" vertex="1">
          <mxGeometry x="167" y="24.000000000000004" width="85" height="34.98" as="geometry" />
        </mxCell>
        <mxCell id="W0tFHgslFkEyKpeiqfC7-223" style="edgeStyle=orthogonalEdgeStyle;rounded=0;hachureGap=4;orthogonalLoop=1;jettySize=auto;html=1;fontFamily=Architects Daughter;fontSource=https%3A%2F%2Ffonts.googleapis.com%2Fcss%3Ffamily%3DArchitects%2BDaughter;fontSize=16;endArrow=none;endFill=0;exitX=1;exitY=0.5;exitDx=0;exitDy=0;labelBackgroundColor=none;fontColor=default;sketch=1;curveFitting=1;jiggle=2;strokeColor=#0B4D6A;" parent="WIyWlLk6GJQsqaUBKTNV-1" source="W0tFHgslFkEyKpeiqfC7-102" target="W0tFHgslFkEyKpeiqfC7-69" edge="1">
          <mxGeometry relative="1" as="geometry">
            <Array as="points">
              <mxPoint x="326" y="398" />
            </Array>
          </mxGeometry>
        </mxCell>
        <mxCell id="W0tFHgslFkEyKpeiqfC7-224" value="M" style="edgeLabel;html=1;align=center;verticalAlign=middle;resizable=0;points=[];fontSize=20;fontFamily=Architects Daughter;labelBackgroundColor=none;rounded=0;sketch=1;curveFitting=1;jiggle=2;fontColor=#EEEEEE;" parent="W0tFHgslFkEyKpeiqfC7-223" vertex="1" connectable="0">
          <mxGeometry x="-0.5731" relative="1" as="geometry">
            <mxPoint x="-20" y="-15" as="offset" />
          </mxGeometry>
        </mxCell>
        <mxCell id="W0tFHgslFkEyKpeiqfC7-102" value="&lt;font style=&quot;font-size: 16px;&quot;&gt;TIRA_DÃVIDAS_DE&lt;/font&gt;" style="rhombus;whiteSpace=wrap;html=1;hachureGap=4;fontFamily=Architects Daughter;fontSource=https%3A%2F%2Ffonts.googleapis.com%2Fcss%3Ffamily%3DArchitects%2BDaughter;fontSize=20;labelBackgroundColor=none;rounded=0;sketch=1;curveFitting=1;jiggle=2;fillColor=#09555B;strokeColor=#BAC8D3;fontColor=#EEEEEE;" parent="WIyWlLk6GJQsqaUBKTNV-1" vertex="1">
          <mxGeometry x="116" y="337" width="186" height="121.96" as="geometry" />
        </mxCell>
        <mxCell id="W0tFHgslFkEyKpeiqfC7-229" style="edgeStyle=orthogonalEdgeStyle;rounded=0;hachureGap=4;orthogonalLoop=1;jettySize=auto;html=1;fontFamily=Architects Daughter;fontSource=https%3A%2F%2Ffonts.googleapis.com%2Fcss%3Ffamily%3DArchitects%2BDaughter;fontSize=16;exitX=0.5;exitY=0;exitDx=0;exitDy=0;endArrow=none;endFill=0;labelBackgroundColor=none;fontColor=default;entryX=1;entryY=0.5;entryDx=0;entryDy=0;sketch=1;curveFitting=1;jiggle=2;strokeColor=#0B4D6A;" parent="WIyWlLk6GJQsqaUBKTNV-1" source="W0tFHgslFkEyKpeiqfC7-227" target="W0tFHgslFkEyKpeiqfC7-69" edge="1">
          <mxGeometry relative="1" as="geometry">
            <Array as="points">
              <mxPoint x="441" y="280" />
            </Array>
          </mxGeometry>
        </mxCell>
        <mxCell id="W0tFHgslFkEyKpeiqfC7-240" value="N" style="edgeLabel;html=1;align=center;verticalAlign=middle;resizable=0;points=[];fontSize=20;fontFamily=Architects Daughter;labelBackgroundColor=none;rounded=0;sketch=1;curveFitting=1;jiggle=2;fontColor=#EEEEEE;" parent="W0tFHgslFkEyKpeiqfC7-229" vertex="1" connectable="0">
          <mxGeometry x="-0.8094" y="1" relative="1" as="geometry">
            <mxPoint x="13" y="-6" as="offset" />
          </mxGeometry>
        </mxCell>
        <mxCell id="9P4Jm4MuEm7MbpDd-vYR-31" style="edgeStyle=orthogonalEdgeStyle;hachureGap=4;orthogonalLoop=1;jettySize=auto;html=1;fontFamily=Architects Daughter;fontSource=https%3A%2F%2Ffonts.googleapis.com%2Fcss%3Ffamily%3DArchitects%2BDaughter;fontSize=16;rounded=0;curved=0;endArrow=none;endFill=0;labelBackgroundColor=none;fontColor=default;entryX=0.5;entryY=0;entryDx=0;entryDy=0;exitX=0.5;exitY=1;exitDx=0;exitDy=0;sketch=1;curveFitting=1;jiggle=2;strokeColor=#0B4D6A;" parent="WIyWlLk6GJQsqaUBKTNV-1" source="W0tFHgslFkEyKpeiqfC7-227" target="W0tFHgslFkEyKpeiqfC7-37" edge="1">
          <mxGeometry relative="1" as="geometry">
            <Array as="points">
              <mxPoint x="442" y="472" />
              <mxPoint x="312" y="472" />
            </Array>
            <mxPoint x="352" y="794" as="targetPoint" />
          </mxGeometry>
        </mxCell>
        <mxCell id="9P4Jm4MuEm7MbpDd-vYR-32" value="1" style="edgeLabel;html=1;align=center;verticalAlign=middle;resizable=0;points=[];fontSize=20;fontFamily=Architects Daughter;labelBackgroundColor=none;sketch=1;curveFitting=1;jiggle=2;fontColor=#EEEEEE;" parent="9P4Jm4MuEm7MbpDd-vYR-31" vertex="1" connectable="0">
          <mxGeometry x="-0.942" y="1" relative="1" as="geometry">
            <mxPoint x="8" y="-1" as="offset" />
          </mxGeometry>
        </mxCell>
        <mxCell id="W0tFHgslFkEyKpeiqfC7-227" value="&lt;div&gt;&lt;font style=&quot;font-size: 16px;&quot;&gt;TIRA_DÃVIDAS&lt;/font&gt;&lt;/div&gt;&lt;div&gt;&lt;font style=&quot;font-size: 16px;&quot;&gt;_SOBRE&lt;/font&gt;&lt;/div&gt;" style="rhombus;whiteSpace=wrap;html=1;hachureGap=4;fontFamily=Architects Daughter;fontSource=https%3A%2F%2Ffonts.googleapis.com%2Fcss%3Ffamily%3DArchitects%2BDaughter;fontSize=20;labelBackgroundColor=none;rounded=0;sketch=1;curveFitting=1;jiggle=2;fillColor=#09555B;strokeColor=#BAC8D3;fontColor=#EEEEEE;" parent="WIyWlLk6GJQsqaUBKTNV-1" vertex="1">
          <mxGeometry x="358.18" y="311.99999999999994" width="167.37" height="104.96" as="geometry" />
        </mxCell>
        <mxCell id="uKcxc90qgeU4bMXmRbKA-4" value="" style="shape=image;verticalLabelPosition=bottom;verticalAlign=top;imageAspect=0;image=data:image/png,iVBORw0KGgoAAAANSUhEUgAAAFEAAABECAYAAAD5lNkeAAAACXBIWXMAAAsTAAALEwEAmpwYAAAAAXNSR0IArs4c6QAAAARnQU1BAACxjwv8YQUAAAVqSURBVHgB7ZxLcttGEEB7IDmR8qniLrKVBXICUScQfQLRG0eyF2ROIOkEok4g6gQmN5GcTZgTBDqByRtMqqKyU1mEi9iiXSTG3fjIIASAg58IgPOq6IIIECCfez49MwAD5LW+dQqgHQuAGoAY4ltjE2DEgI0FTIcMtPEEJsNf+HgMinuw1/rjcwHsWOpglCscyfiZkRJsgxK3/0MxNUiJK5giWAPgtL0qcjOTGHoBj1yAmYHb/CX/dwgVgl3qTzr4Q0/hwaFqgeFLjEjyIX9nQElh9M+Vvt3FjVaeESmHFbHXZYtY5v3jlV6rbcB3dQ1YTYCpm/jChqPO7FZ7Bx4YpyowcPN6BlOjqFJZnIN/07frMxTMQNSXIbioUmNJjIIEC9Awemckto6n1vOXKzhexzBh+sdH+GQsqyeQmcQwXLkYOQ2KXOz+7ORX9wqqS/u4YWBDxeGByF1iEJf6lg6wji+zgV+hkY9YKyno43kHeQtdisQgSKwGj+puxGK9uweZkW+EFkZiEJf6j40corWHPY9+lv3SQkv045WaPlIFpaZnmJoO0jZIpZLohfq038D3DWyZmzjaREJ1SITg+B/Sw05+P2lRL61EPxSlAmZNTBT2IaFQBmYniczKSPRC3aopmO1kQgXHROLiBf+nK/uJSkr0YtejMxSq7cdrmATHnsIzmayo8hJd7HGBb7H+FDRipct/UnQP+NuTqCNWRqIXNzqxQWrJfcJqyZ+G1ZUrKdHFzpxYR05mePFeaYkutsy1nkzfE1vw9s/8XX/+PcUdl/p2W6bOxIznqTfjURJ9SBZxHNc0d906UkkMAadMcBpZnIcfIYbYau/SlgaKQA74TRc767u0gCH4CFb/Vf/Bmq9XkbgAyn5MEG9Cdo9v4cNPKhIX8Jzf0NRuWGe79jV81VCRKMmV/vhPGoIL2NVTkSgJjT2G7GooiZJswEbYQISuinMMrvQnIuh9FYmSUCsdsmusJEoyg1mgRFqnqSRKQKkgdroDV85h+jdUEiXAzOXIXhZzHwFT1cVZBK1nD1uOje9f0/iikhgBCmwJ0Dph+3Fm0JKrJIZgR6DWC9uP+fTFSyslBFgHxRz2ooDN0wV3VPCPcNtx/1ASPTit8O8osB5xGKeRbe/SE1WcHaj44tz0G4gQSGOL2FI/88/6rXzah9GHQ1nsHKKjj+DO3Ar371hZiU7RfRUyvOUnVCCxchIlG447aHHoBG6Po5bfrYxEijwSt4azePaNoNFQ/TcD8+wFf9tdfGzFoToPG4wjFNeU/QxlIrTMRHaJXSUlOkW2geKOJOs8C4o+zEJODvlND2JQKYn24nlofbl3Ww5bnriYwIdukqXHpZdIUbcJm23c3I8TdR56OO15kmbddmkl2v07rYU/oBkn6jzQXQRnWdySUbK7B7awnmNN2RbWT9piG37eAmOvbt2opxFH5CXvy/kLhiOuiUV1L0VRtbC7KqxzyP82IEcKIdHuy8GesBqGRI3DHXlHXfA1l0CW0UY44jDqtG7eURd8/QeApNHCH4A1irj9sEmfuNjFFXoTeD9Y5lNPcpHok7YnMcwkDYnDLz24hfe9ojwuJhOJ9hJdoO5HPctII5xUbAQFiLgwYkt0ux3Mji6s01gjbZ12/0tZIyh9BmuDCfxf+AcULZToi7JMi6YXt5jiNYznzixaWZiT6BO2Q9GWdZS54Hn/okcLlCXaorAkzj+1Lh9IGj05BDeNotZtSYn11Lo4eKUBPDIOOedQUXDeWWtbPzk1bGSCaWAHeli1SFtEosl7++GUlCEwA6N4WPY6LS3rlGdGPbXO7afROjyKMiqaBxUumkmYe2odbfuFVbkuy4rPoamj/16dnHoAAAAASUVORK5CYII=;rotation=-227.19999999999996;labelBackgroundColor=none;rounded=0;sketch=1;curveFitting=1;jiggle=2;fillColor=#09555B;strokeColor=#BAC8D3;fontColor=#EEEEEE;" parent="WIyWlLk6GJQsqaUBKTNV-1" vertex="1">
          <mxGeometry x="141" y="212.99999999999994" width="25.01" height="21" as="geometry" />
        </mxCell>
        <mxCell id="uKcxc90qgeU4bMXmRbKA-6" value="" style="shape=image;verticalLabelPosition=bottom;verticalAlign=top;imageAspect=0;image=data:image/png,iVBORw0KGgoAAAANSUhEUgAAAFEAAABECAYAAAD5lNkeAAAACXBIWXMAAAsTAAALEwEAmpwYAAAAAXNSR0IArs4c6QAAAARnQU1BAACxjwv8YQUAAAVqSURBVHgB7ZxLcttGEEB7IDmR8qniLrKVBXICUScQfQLRG0eyF2ROIOkEok4g6gQmN5GcTZgTBDqByRtMqqKyU1mEi9iiXSTG3fjIIASAg58IgPOq6IIIECCfez49MwAD5LW+dQqgHQuAGoAY4ltjE2DEgI0FTIcMtPEEJsNf+HgMinuw1/rjcwHsWOpglCscyfiZkRJsgxK3/0MxNUiJK5giWAPgtL0qcjOTGHoBj1yAmYHb/CX/dwgVgl3qTzr4Q0/hwaFqgeFLjEjyIX9nQElh9M+Vvt3FjVaeESmHFbHXZYtY5v3jlV6rbcB3dQ1YTYCpm/jChqPO7FZ7Bx4YpyowcPN6BlOjqFJZnIN/07frMxTMQNSXIbioUmNJjIIEC9Awemckto6n1vOXKzhexzBh+sdH+GQsqyeQmcQwXLkYOQ2KXOz+7ORX9wqqS/u4YWBDxeGByF1iEJf6lg6wji+zgV+hkY9YKyno43kHeQtdisQgSKwGj+puxGK9uweZkW+EFkZiEJf6j40corWHPY9+lv3SQkv045WaPlIFpaZnmJoO0jZIpZLohfq038D3DWyZmzjaREJ1SITg+B/Sw05+P2lRL61EPxSlAmZNTBT2IaFQBmYniczKSPRC3aopmO1kQgXHROLiBf+nK/uJSkr0YtejMxSq7cdrmATHnsIzmayo8hJd7HGBb7H+FDRipct/UnQP+NuTqCNWRqIXNzqxQWrJfcJqyZ+G1ZUrKdHFzpxYR05mePFeaYkutsy1nkzfE1vw9s/8XX/+PcUdl/p2W6bOxIznqTfjURJ9SBZxHNc0d906UkkMAadMcBpZnIcfIYbYau/SlgaKQA74TRc767u0gCH4CFb/Vf/Bmq9XkbgAyn5MEG9Cdo9v4cNPKhIX8Jzf0NRuWGe79jV81VCRKMmV/vhPGoIL2NVTkSgJjT2G7GooiZJswEbYQISuinMMrvQnIuh9FYmSUCsdsmusJEoyg1mgRFqnqSRKQKkgdroDV85h+jdUEiXAzOXIXhZzHwFT1cVZBK1nD1uOje9f0/iikhgBCmwJ0Dph+3Fm0JKrJIZgR6DWC9uP+fTFSyslBFgHxRz2ooDN0wV3VPCPcNtx/1ASPTit8O8osB5xGKeRbe/SE1WcHaj44tz0G4gQSGOL2FI/88/6rXzah9GHQ1nsHKKjj+DO3Ar371hZiU7RfRUyvOUnVCCxchIlG447aHHoBG6Po5bfrYxEijwSt4azePaNoNFQ/TcD8+wFf9tdfGzFoToPG4wjFNeU/QxlIrTMRHaJXSUlOkW2geKOJOs8C4o+zEJODvlND2JQKYn24nlofbl3Ww5bnriYwIdukqXHpZdIUbcJm23c3I8TdR56OO15kmbddmkl2v07rYU/oBkn6jzQXQRnWdySUbK7B7awnmNN2RbWT9piG37eAmOvbt2opxFH5CXvy/kLhiOuiUV1L0VRtbC7KqxzyP82IEcKIdHuy8GesBqGRI3DHXlHXfA1l0CW0UY44jDqtG7eURd8/QeApNHCH4A1irj9sEmfuNjFFXoTeD9Y5lNPcpHok7YnMcwkDYnDLz24hfe9ojwuJhOJ9hJdoO5HPctII5xUbAQFiLgwYkt0ux3Mji6s01gjbZ12/0tZIyh9BmuDCfxf+AcULZToi7JMi6YXt5jiNYznzixaWZiT6BO2Q9GWdZS54Hn/okcLlCXaorAkzj+1Lh9IGj05BDeNotZtSYn11Lo4eKUBPDIOOedQUXDeWWtbPzk1bGSCaWAHeli1SFtEosl7++GUlCEwA6N4WPY6LS3rlGdGPbXO7afROjyKMiqaBxUumkmYe2odbfuFVbkuy4rPoamj/16dnHoAAAAASUVORK5CYII=;rotation=47.1;labelBackgroundColor=none;rounded=0;sketch=1;curveFitting=1;jiggle=2;fillColor=#09555B;strokeColor=#BAC8D3;fontColor=#EEEEEE;" parent="WIyWlLk6GJQsqaUBKTNV-1" vertex="1">
          <mxGeometry x="268" y="208.99999999999994" width="25.01" height="21" as="geometry" />
        </mxCell>
        <mxCell id="kbyC_nOfYKp0m0zLwS5V-13" style="edgeStyle=orthogonalEdgeStyle;rounded=0;hachureGap=4;orthogonalLoop=1;jettySize=auto;html=1;entryX=0.5;entryY=1;entryDx=0;entryDy=0;fontFamily=Architects Daughter;fontSource=https%3A%2F%2Ffonts.googleapis.com%2Fcss%3Ffamily%3DArchitects%2BDaughter;fontSize=16;endArrow=none;endFill=0;labelBackgroundColor=none;fontColor=default;sketch=1;curveFitting=1;jiggle=2;strokeColor=#0B4D6A;" parent="WIyWlLk6GJQsqaUBKTNV-1" source="uKcxc90qgeU4bMXmRbKA-10" target="W0tFHgslFkEyKpeiqfC7-102" edge="1">
          <mxGeometry relative="1" as="geometry">
            <Array as="points">
              <mxPoint x="209" y="512" />
              <mxPoint x="209" y="512" />
            </Array>
          </mxGeometry>
        </mxCell>
        <mxCell id="kbyC_nOfYKp0m0zLwS5V-19" value="K" style="edgeLabel;html=1;align=center;verticalAlign=middle;resizable=0;points=[];fontSize=20;fontFamily=Architects Daughter;labelBackgroundColor=none;rounded=0;sketch=1;curveFitting=1;jiggle=2;fontColor=#EEEEEE;" parent="kbyC_nOfYKp0m0zLwS5V-13" vertex="1" connectable="0">
          <mxGeometry x="0.4511" y="-2" relative="1" as="geometry">
            <mxPoint x="-14" y="-6" as="offset" />
          </mxGeometry>
        </mxCell>
        <mxCell id="uKcxc90qgeU4bMXmRbKA-10" value="&lt;font style=&quot;font-size: 16px;&quot;&gt;Mensagem&lt;/font&gt;" style="rounded=0;whiteSpace=wrap;html=1;labelBackgroundColor=none;sketch=1;curveFitting=1;jiggle=2;fillColor=#09555B;strokeColor=#BAC8D3;fontColor=#EEEEEE;" parent="WIyWlLk6GJQsqaUBKTNV-1" vertex="1">
          <mxGeometry x="103.99999999999989" y="526.54" width="120" height="40" as="geometry" />
        </mxCell>
        <mxCell id="kbyC_nOfYKp0m0zLwS5V-17" style="edgeStyle=orthogonalEdgeStyle;rounded=0;hachureGap=4;orthogonalLoop=1;jettySize=auto;html=1;fontFamily=Architects Daughter;fontSource=https%3A%2F%2Ffonts.googleapis.com%2Fcss%3Ffamily%3DArchitects%2BDaughter;fontSize=16;endArrow=none;endFill=0;labelBackgroundColor=none;fontColor=default;sketch=1;curveFitting=1;jiggle=2;strokeColor=#0B4D6A;" parent="WIyWlLk6GJQsqaUBKTNV-1" source="uKcxc90qgeU4bMXmRbKA-13" target="uKcxc90qgeU4bMXmRbKA-10" edge="1">
          <mxGeometry relative="1" as="geometry">
            <Array as="points">
              <mxPoint x="184" y="600" />
            </Array>
          </mxGeometry>
        </mxCell>
        <mxCell id="uKcxc90qgeU4bMXmRbKA-13" value="data_envio" style="ellipse;whiteSpace=wrap;html=1;rounded=0;labelBackgroundColor=none;sketch=1;curveFitting=1;jiggle=2;fillColor=#09555B;strokeColor=#BAC8D3;fontColor=#EEEEEE;" parent="WIyWlLk6GJQsqaUBKTNV-1" vertex="1">
          <mxGeometry x="200" y="584.5" width="83.99" height="30" as="geometry" />
        </mxCell>
        <mxCell id="kbyC_nOfYKp0m0zLwS5V-18" style="edgeStyle=orthogonalEdgeStyle;rounded=0;hachureGap=4;orthogonalLoop=1;jettySize=auto;html=1;fontFamily=Architects Daughter;fontSource=https%3A%2F%2Ffonts.googleapis.com%2Fcss%3Ffamily%3DArchitects%2BDaughter;fontSize=16;endArrow=none;endFill=0;labelBackgroundColor=none;fontColor=default;sketch=1;curveFitting=1;jiggle=2;strokeColor=#0B4D6A;" parent="WIyWlLk6GJQsqaUBKTNV-1" source="uKcxc90qgeU4bMXmRbKA-18" target="uKcxc90qgeU4bMXmRbKA-10" edge="1">
          <mxGeometry relative="1" as="geometry">
            <Array as="points">
              <mxPoint x="184" y="608" />
              <mxPoint x="184" y="608" />
            </Array>
          </mxGeometry>
        </mxCell>
        <mxCell id="uKcxc90qgeU4bMXmRbKA-18" value="timestamp_envio" style="ellipse;whiteSpace=wrap;html=1;rounded=0;labelBackgroundColor=none;sketch=1;curveFitting=1;jiggle=2;fillColor=#09555B;strokeColor=#BAC8D3;fontColor=#EEEEEE;" parent="WIyWlLk6GJQsqaUBKTNV-1" vertex="1">
          <mxGeometry x="107.5" y="632" width="115" height="30" as="geometry" />
        </mxCell>
        <mxCell id="kbyC_nOfYKp0m0zLwS5V-4" style="edgeStyle=orthogonalEdgeStyle;rounded=0;hachureGap=4;orthogonalLoop=1;jettySize=auto;html=1;fontFamily=Architects Daughter;fontSource=https%3A%2F%2Ffonts.googleapis.com%2Fcss%3Ffamily%3DArchitects%2BDaughter;fontSize=16;endArrow=none;endFill=0;labelBackgroundColor=none;fontColor=default;sketch=1;curveFitting=1;jiggle=2;strokeColor=#0B4D6A;" parent="WIyWlLk6GJQsqaUBKTNV-1" source="kbyC_nOfYKp0m0zLwS5V-0" target="W0tFHgslFkEyKpeiqfC7-28" edge="1">
          <mxGeometry relative="1" as="geometry">
            <Array as="points">
              <mxPoint x="424" y="609" />
            </Array>
          </mxGeometry>
        </mxCell>
        <mxCell id="kbyC_nOfYKp0m0zLwS5V-0" value="m_fim" style="ellipse;whiteSpace=wrap;html=1;rounded=0;labelBackgroundColor=none;sketch=1;curveFitting=1;jiggle=2;fillColor=#09555B;strokeColor=#BAC8D3;fontColor=#EEEEEE;" parent="WIyWlLk6GJQsqaUBKTNV-1" vertex="1">
          <mxGeometry x="440" y="594" width="64" height="30" as="geometry" />
        </mxCell>
        <mxCell id="kbyC_nOfYKp0m0zLwS5V-3" style="edgeStyle=orthogonalEdgeStyle;rounded=0;hachureGap=4;orthogonalLoop=1;jettySize=auto;html=1;fontFamily=Architects Daughter;fontSource=https%3A%2F%2Ffonts.googleapis.com%2Fcss%3Ffamily%3DArchitects%2BDaughter;fontSize=16;labelBackgroundColor=none;fontColor=default;endArrow=none;endFill=0;sketch=1;curveFitting=1;jiggle=2;strokeColor=#0B4D6A;" parent="WIyWlLk6GJQsqaUBKTNV-1" source="kbyC_nOfYKp0m0zLwS5V-1" target="W0tFHgslFkEyKpeiqfC7-28" edge="1">
          <mxGeometry relative="1" as="geometry">
            <Array as="points">
              <mxPoint x="424" y="560" />
            </Array>
          </mxGeometry>
        </mxCell>
        <mxCell id="kbyC_nOfYKp0m0zLwS5V-1" value="m_inÃ­cio" style="ellipse;whiteSpace=wrap;html=1;rounded=0;labelBackgroundColor=none;sketch=1;curveFitting=1;jiggle=2;fillColor=#09555B;strokeColor=#BAC8D3;fontColor=#EEEEEE;" parent="WIyWlLk6GJQsqaUBKTNV-1" vertex="1">
          <mxGeometry x="441.87" y="544" width="64" height="32" as="geometry" />
        </mxCell>
        <mxCell id="kbyC_nOfYKp0m0zLwS5V-15" style="edgeStyle=orthogonalEdgeStyle;rounded=0;hachureGap=4;orthogonalLoop=1;jettySize=auto;html=1;fontFamily=Architects Daughter;fontSource=https%3A%2F%2Ffonts.googleapis.com%2Fcss%3Ffamily%3DArchitects%2BDaughter;fontSize=16;endArrow=none;endFill=0;labelBackgroundColor=none;fontColor=default;sketch=1;curveFitting=1;jiggle=2;strokeColor=#0B4D6A;" parent="WIyWlLk6GJQsqaUBKTNV-1" source="kbyC_nOfYKp0m0zLwS5V-6" target="uKcxc90qgeU4bMXmRbKA-10" edge="1">
          <mxGeometry relative="1" as="geometry">
            <mxPoint x="67.00999999999999" y="595.04" as="targetPoint" />
            <Array as="points">
              <mxPoint x="184" y="600" />
            </Array>
          </mxGeometry>
        </mxCell>
        <mxCell id="kbyC_nOfYKp0m0zLwS5V-6" value="conteÃºdo" style="ellipse;whiteSpace=wrap;html=1;rounded=0;labelBackgroundColor=none;sketch=1;curveFitting=1;jiggle=2;fillColor=#09555B;strokeColor=#BAC8D3;fontColor=#EEEEEE;" parent="WIyWlLk6GJQsqaUBKTNV-1" vertex="1">
          <mxGeometry x="98.5" y="584.5" width="74" height="30" as="geometry" />
        </mxCell>
        <mxCell id="9P4Jm4MuEm7MbpDd-vYR-10" style="edgeStyle=orthogonalEdgeStyle;hachureGap=4;orthogonalLoop=1;jettySize=auto;html=1;entryX=0.5;entryY=1;entryDx=0;entryDy=0;fontFamily=Architects Daughter;fontSource=https%3A%2F%2Ffonts.googleapis.com%2Fcss%3Ffamily%3DArchitects%2BDaughter;fontSize=16;rounded=0;curved=0;endArrow=none;endFill=0;labelBackgroundColor=none;fontColor=default;sketch=1;curveFitting=1;jiggle=2;strokeColor=#0B4D6A;" parent="WIyWlLk6GJQsqaUBKTNV-1" source="9P4Jm4MuEm7MbpDd-vYR-6" target="9P4Jm4MuEm7MbpDd-vYR-9" edge="1">
          <mxGeometry relative="1" as="geometry">
            <Array as="points">
              <mxPoint x="165" y="1000" />
              <mxPoint x="165" y="1000" />
            </Array>
          </mxGeometry>
        </mxCell>
        <mxCell id="9P4Jm4MuEm7MbpDd-vYR-13" value="M" style="edgeLabel;html=1;align=center;verticalAlign=middle;resizable=0;points=[];fontSize=20;fontFamily=Architects Daughter;rounded=0;labelBackgroundColor=none;sketch=1;curveFitting=1;jiggle=2;fontColor=#EEEEEE;" parent="9P4Jm4MuEm7MbpDd-vYR-10" vertex="1" connectable="0">
          <mxGeometry x="0.8772" relative="1" as="geometry">
            <mxPoint x="-17" y="4" as="offset" />
          </mxGeometry>
        </mxCell>
        <mxCell id="9P4Jm4MuEm7MbpDd-vYR-6" value="&lt;font style=&quot;font-size: 16px;&quot;&gt;Disciplinas_padrÃ£o&lt;/font&gt;" style="rounded=0;whiteSpace=wrap;html=1;labelBackgroundColor=none;sketch=1;curveFitting=1;jiggle=2;fillColor=#09555B;strokeColor=#BAC8D3;fontColor=#EEEEEE;" parent="WIyWlLk6GJQsqaUBKTNV-1" vertex="1">
          <mxGeometry x="104" y="1042" width="168" height="40" as="geometry" />
        </mxCell>
        <mxCell id="d1IbL5sfaYxFfICt-fRD-8" style="edgeStyle=orthogonalEdgeStyle;rounded=0;hachureGap=4;orthogonalLoop=1;jettySize=auto;html=1;fontFamily=Architects Daughter;fontSource=https%3A%2F%2Ffonts.googleapis.com%2Fcss%3Ffamily%3DArchitects%2BDaughter;fontSize=16;endArrow=none;endFill=0;labelBackgroundColor=none;fontColor=default;sketch=1;curveFitting=1;jiggle=2;strokeColor=#0B4D6A;" edge="1" parent="WIyWlLk6GJQsqaUBKTNV-1" source="9P4Jm4MuEm7MbpDd-vYR-9" target="W0tFHgslFkEyKpeiqfC7-37">
          <mxGeometry relative="1" as="geometry">
            <mxPoint x="300" y="794" as="targetPoint" />
            <Array as="points">
              <mxPoint x="280" y="854" />
            </Array>
          </mxGeometry>
        </mxCell>
        <mxCell id="d1IbL5sfaYxFfICt-fRD-9" value="N" style="edgeLabel;html=1;align=center;verticalAlign=middle;resizable=0;points=[];fontSize=20;fontFamily=Architects Daughter;labelBackgroundColor=none;sketch=1;curveFitting=1;jiggle=2;fontColor=#EEEEEE;" vertex="1" connectable="0" parent="d1IbL5sfaYxFfICt-fRD-8">
          <mxGeometry x="-0.1547" y="-1" relative="1" as="geometry">
            <mxPoint x="-44" y="-17" as="offset" />
          </mxGeometry>
        </mxCell>
        <mxCell id="9P4Jm4MuEm7MbpDd-vYR-9" value="&lt;font style=&quot;font-size: 16px;&quot;&gt;POSSUI&lt;/font&gt;" style="rhombus;whiteSpace=wrap;html=1;hachureGap=4;fontFamily=Architects Daughter;fontSource=https%3A%2F%2Ffonts.googleapis.com%2Fcss%3Ffamily%3DArchitects%2BDaughter;fontSize=20;labelBackgroundColor=none;rounded=0;sketch=1;curveFitting=1;jiggle=2;fillColor=#09555B;strokeColor=#BAC8D3;fontColor=#EEEEEE;" parent="WIyWlLk6GJQsqaUBKTNV-1" vertex="1">
          <mxGeometry x="111.99999999999972" y="824" width="106" height="60" as="geometry" />
        </mxCell>
        <mxCell id="d1IbL5sfaYxFfICt-fRD-4" style="edgeStyle=orthogonalEdgeStyle;rounded=0;hachureGap=4;orthogonalLoop=1;jettySize=auto;html=1;fontFamily=Architects Daughter;fontSource=https%3A%2F%2Ffonts.googleapis.com%2Fcss%3Ffamily%3DArchitects%2BDaughter;fontSize=16;endArrow=none;endFill=0;labelBackgroundColor=none;fontColor=default;entryX=1;entryY=0.5;entryDx=0;entryDy=0;sketch=1;curveFitting=1;jiggle=2;strokeColor=#0B4D6A;" edge="1" parent="WIyWlLk6GJQsqaUBKTNV-1" source="9P4Jm4MuEm7MbpDd-vYR-14" target="9P4Jm4MuEm7MbpDd-vYR-6">
          <mxGeometry relative="1" as="geometry">
            <mxPoint x="249" y="1025.8200000000002" as="targetPoint" />
            <Array as="points">
              <mxPoint x="376" y="1061" />
              <mxPoint x="296" y="1060" />
            </Array>
          </mxGeometry>
        </mxCell>
        <mxCell id="d1IbL5sfaYxFfICt-fRD-6" value="1" style="edgeLabel;html=1;align=center;verticalAlign=middle;resizable=0;points=[];fontSize=20;fontFamily=Architects Daughter;labelBackgroundColor=none;sketch=1;curveFitting=1;jiggle=2;fontColor=#EEEEEE;" vertex="1" connectable="0" parent="d1IbL5sfaYxFfICt-fRD-4">
          <mxGeometry x="-0.4125" y="3" relative="1" as="geometry">
            <mxPoint x="2" y="-18" as="offset" />
          </mxGeometry>
        </mxCell>
        <mxCell id="9P4Jm4MuEm7MbpDd-vYR-14" value="&lt;font style=&quot;font-size: 16px;&quot;&gt;POSSUI&lt;/font&gt;" style="rhombus;whiteSpace=wrap;html=1;hachureGap=4;fontFamily=Architects Daughter;fontSource=https%3A%2F%2Ffonts.googleapis.com%2Fcss%3Ffamily%3DArchitects%2BDaughter;fontSize=20;labelBackgroundColor=none;rounded=0;sketch=1;curveFitting=1;jiggle=2;fillColor=#09555B;strokeColor=#BAC8D3;fontColor=#EEEEEE;" parent="WIyWlLk6GJQsqaUBKTNV-1" vertex="1">
          <mxGeometry x="303.9999999999998" y="1032" width="106" height="60" as="geometry" />
        </mxCell>
        <mxCell id="d1IbL5sfaYxFfICt-fRD-22" style="edgeStyle=orthogonalEdgeStyle;rounded=0;hachureGap=4;orthogonalLoop=1;jettySize=auto;html=1;fontFamily=Architects Daughter;fontSource=https%3A%2F%2Ffonts.googleapis.com%2Fcss%3Ffamily%3DArchitects%2BDaughter;fontSize=16;exitX=0.5;exitY=0;exitDx=0;exitDy=0;endArrow=none;endFill=0;labelBackgroundColor=none;fontColor=default;sketch=1;curveFitting=1;jiggle=2;strokeColor=#0B4D6A;" edge="1" parent="WIyWlLk6GJQsqaUBKTNV-1" source="d1IbL5sfaYxFfICt-fRD-17" target="W0tFHgslFkEyKpeiqfC7-28">
          <mxGeometry relative="1" as="geometry">
            <mxPoint x="576" y="624" as="targetPoint" />
            <Array as="points">
              <mxPoint x="453" y="686" />
              <mxPoint x="453" y="686" />
            </Array>
          </mxGeometry>
        </mxCell>
        <mxCell id="d1IbL5sfaYxFfICt-fRD-39" value="N" style="edgeLabel;html=1;align=center;verticalAlign=middle;resizable=0;points=[];fontSize=20;fontFamily=Architects Daughter;labelBackgroundColor=none;sketch=1;curveFitting=1;jiggle=2;fontColor=#EEEEEE;" vertex="1" connectable="0" parent="d1IbL5sfaYxFfICt-fRD-22">
          <mxGeometry x="-0.8285" y="1" relative="1" as="geometry">
            <mxPoint x="-11" y="-9" as="offset" />
          </mxGeometry>
        </mxCell>
        <mxCell id="d1IbL5sfaYxFfICt-fRD-23" style="edgeStyle=orthogonalEdgeStyle;rounded=0;hachureGap=4;orthogonalLoop=1;jettySize=auto;html=1;fontFamily=Architects Daughter;fontSource=https%3A%2F%2Ffonts.googleapis.com%2Fcss%3Ffamily%3DArchitects%2BDaughter;fontSize=16;endArrow=none;endFill=0;labelBackgroundColor=none;fontColor=default;sketch=1;curveFitting=1;jiggle=2;strokeColor=#0B4D6A;" edge="1" parent="WIyWlLk6GJQsqaUBKTNV-1" source="d1IbL5sfaYxFfICt-fRD-17" target="W0tFHgslFkEyKpeiqfC7-37">
          <mxGeometry relative="1" as="geometry" />
        </mxCell>
        <mxCell id="d1IbL5sfaYxFfICt-fRD-38" value="1" style="edgeLabel;html=1;align=center;verticalAlign=middle;resizable=0;points=[];fontSize=20;fontFamily=Architects Daughter;labelBackgroundColor=none;sketch=1;curveFitting=1;jiggle=2;fontColor=#EEEEEE;" vertex="1" connectable="0" parent="d1IbL5sfaYxFfICt-fRD-23">
          <mxGeometry x="-0.5535" y="-2" relative="1" as="geometry">
            <mxPoint x="5" y="-11" as="offset" />
          </mxGeometry>
        </mxCell>
        <mxCell id="d1IbL5sfaYxFfICt-fRD-17" value="&lt;font style=&quot;font-size: 16px;&quot;&gt;POSSUI&lt;/font&gt;" style="rhombus;whiteSpace=wrap;html=1;hachureGap=4;fontFamily=Architects Daughter;fontSource=https%3A%2F%2Ffonts.googleapis.com%2Fcss%3Ffamily%3DArchitects%2BDaughter;fontSize=20;labelBackgroundColor=none;rounded=0;sketch=1;curveFitting=1;jiggle=2;fillColor=#09555B;strokeColor=#BAC8D3;fontColor=#EEEEEE;" vertex="1" parent="WIyWlLk6GJQsqaUBKTNV-1">
          <mxGeometry x="399.9999999999998" y="744" width="106" height="60" as="geometry" />
        </mxCell>
        <mxCell id="d1IbL5sfaYxFfICt-fRD-21" style="edgeStyle=orthogonalEdgeStyle;rounded=0;hachureGap=4;orthogonalLoop=1;jettySize=auto;html=1;fontFamily=Architects Daughter;fontSource=https%3A%2F%2Ffonts.googleapis.com%2Fcss%3Ffamily%3DArchitects%2BDaughter;fontSize=16;endArrow=none;endFill=0;labelBackgroundColor=none;fontColor=default;sketch=1;curveFitting=1;jiggle=2;strokeColor=#0B4D6A;" edge="1" parent="WIyWlLk6GJQsqaUBKTNV-1" source="d1IbL5sfaYxFfICt-fRD-18" target="W0tFHgslFkEyKpeiqfC7-28">
          <mxGeometry relative="1" as="geometry">
            <mxPoint x="628" y="632" as="targetPoint" />
            <Array as="points">
              <mxPoint x="525" y="736" />
              <mxPoint x="525" y="736" />
            </Array>
          </mxGeometry>
        </mxCell>
        <mxCell id="d1IbL5sfaYxFfICt-fRD-40" value="N" style="edgeLabel;html=1;align=center;verticalAlign=middle;resizable=0;points=[];fontSize=20;fontFamily=Architects Daughter;labelBackgroundColor=none;sketch=1;curveFitting=1;jiggle=2;fontColor=#EEEEEE;" vertex="1" connectable="0" parent="d1IbL5sfaYxFfICt-fRD-21">
          <mxGeometry x="-0.7768" y="1" relative="1" as="geometry">
            <mxPoint x="13" y="-2" as="offset" />
          </mxGeometry>
        </mxCell>
        <mxCell id="d1IbL5sfaYxFfICt-fRD-18" value="&lt;font style=&quot;font-size: 16px;&quot;&gt;POSSUI&lt;/font&gt;" style="rhombus;whiteSpace=wrap;html=1;hachureGap=4;fontFamily=Architects Daughter;fontSource=https%3A%2F%2Ffonts.googleapis.com%2Fcss%3Ffamily%3DArchitects%2BDaughter;fontSize=20;labelBackgroundColor=none;rounded=0;sketch=1;curveFitting=1;jiggle=2;fillColor=#09555B;strokeColor=#BAC8D3;fontColor=#EEEEEE;" vertex="1" parent="WIyWlLk6GJQsqaUBKTNV-1">
          <mxGeometry x="471.9999999999998" y="786" width="106" height="60" as="geometry" />
        </mxCell>
        <mxCell id="d1IbL5sfaYxFfICt-fRD-27" value="&lt;font style=&quot;font-size: 16px;&quot;&gt;POSSUI&lt;/font&gt;" style="rhombus;whiteSpace=wrap;html=1;hachureGap=4;fontFamily=Architects Daughter;fontSource=https%3A%2F%2Ffonts.googleapis.com%2Fcss%3Ffamily%3DArchitects%2BDaughter;fontSize=20;labelBackgroundColor=none;rounded=0;sketch=1;curveFitting=1;jiggle=2;fillColor=#09555B;strokeColor=#BAC8D3;fontColor=#EEEEEE;" vertex="1" parent="WIyWlLk6GJQsqaUBKTNV-1">
          <mxGeometry x="263.99999999999966" y="880" width="106" height="60" as="geometry" />
        </mxCell>
        <mxCell id="d1IbL5sfaYxFfICt-fRD-60" style="edgeStyle=orthogonalEdgeStyle;rounded=0;hachureGap=4;orthogonalLoop=1;jettySize=auto;html=1;entryX=0.547;entryY=1.03;entryDx=0;entryDy=0;entryPerimeter=0;fontFamily=Architects Daughter;fontSource=https%3A%2F%2Ffonts.googleapis.com%2Fcss%3Ffamily%3DArchitects%2BDaughter;fontSize=16;endArrow=none;endFill=0;labelBackgroundColor=none;fontColor=default;sketch=1;curveFitting=1;jiggle=2;strokeColor=#0B4D6A;" edge="1" parent="WIyWlLk6GJQsqaUBKTNV-1" source="d1IbL5sfaYxFfICt-fRD-27" target="W0tFHgslFkEyKpeiqfC7-37">
          <mxGeometry relative="1" as="geometry" />
        </mxCell>
        <mxCell id="d1IbL5sfaYxFfICt-fRD-65" value="N" style="edgeLabel;html=1;align=center;verticalAlign=middle;resizable=0;points=[];fontSize=20;fontFamily=Architects Daughter;labelBackgroundColor=none;sketch=1;curveFitting=1;jiggle=2;fontColor=#EEEEEE;" vertex="1" connectable="0" parent="d1IbL5sfaYxFfICt-fRD-60">
          <mxGeometry x="-0.389" y="-2" relative="1" as="geometry">
            <mxPoint x="12" y="6" as="offset" />
          </mxGeometry>
        </mxCell>
        <mxCell id="d1IbL5sfaYxFfICt-fRD-70" style="edgeStyle=orthogonalEdgeStyle;rounded=0;hachureGap=4;orthogonalLoop=1;jettySize=auto;html=1;fontFamily=Architects Daughter;fontSource=https%3A%2F%2Ffonts.googleapis.com%2Fcss%3Ffamily%3DArchitects%2BDaughter;fontSize=16;endArrow=none;endFill=0;labelBackgroundColor=none;fontColor=default;sketch=1;curveFitting=1;jiggle=2;strokeColor=#0B4D6A;" edge="1" parent="WIyWlLk6GJQsqaUBKTNV-1" source="d1IbL5sfaYxFfICt-fRD-68" target="d1IbL5sfaYxFfICt-fRD-73">
          <mxGeometry relative="1" as="geometry">
            <mxPoint x="712.9399999999998" y="776" as="targetPoint" />
          </mxGeometry>
        </mxCell>
        <mxCell id="d1IbL5sfaYxFfICt-fRD-72" value="N" style="edgeLabel;html=1;align=center;verticalAlign=middle;resizable=0;points=[];fontSize=20;fontFamily=Architects Daughter;labelBackgroundColor=none;sketch=1;curveFitting=1;jiggle=2;fontColor=#EEEEEE;" vertex="1" connectable="0" parent="d1IbL5sfaYxFfICt-fRD-70">
          <mxGeometry x="-0.3429" relative="1" as="geometry">
            <mxPoint x="15" y="3" as="offset" />
          </mxGeometry>
        </mxCell>
        <mxCell id="d1IbL5sfaYxFfICt-fRD-68" value="&lt;font style=&quot;font-size: 16px;&quot;&gt;POSSUI&lt;/font&gt;" style="rhombus;whiteSpace=wrap;html=1;hachureGap=4;fontFamily=Architects Daughter;fontSource=https%3A%2F%2Ffonts.googleapis.com%2Fcss%3Ffamily%3DArchitects%2BDaughter;fontSize=20;labelBackgroundColor=none;rounded=0;sketch=1;curveFitting=1;jiggle=2;fillColor=#09555B;strokeColor=#BAC8D3;fontColor=#EEEEEE;" vertex="1" parent="WIyWlLk6GJQsqaUBKTNV-1">
          <mxGeometry x="644.9299999999998" y="824" width="106" height="60" as="geometry" />
        </mxCell>
        <mxCell id="d1IbL5sfaYxFfICt-fRD-73" value="&lt;font style=&quot;font-size: 16px;&quot;&gt;SessÃ£o_estudo&lt;/font&gt;" style="rounded=0;whiteSpace=wrap;html=1;labelBackgroundColor=none;sketch=1;curveFitting=1;jiggle=2;fillColor=#09555B;strokeColor=#BAC8D3;fontColor=#EEEEEE;" vertex="1" parent="WIyWlLk6GJQsqaUBKTNV-1">
          <mxGeometry x="631.1299999999999" y="744" width="134" height="40" as="geometry" />
        </mxCell>
        <mxCell id="d1IbL5sfaYxFfICt-fRD-74" style="edgeStyle=orthogonalEdgeStyle;rounded=0;hachureGap=4;orthogonalLoop=1;jettySize=auto;html=1;fontFamily=Architects Daughter;fontSource=https%3A%2F%2Ffonts.googleapis.com%2Fcss%3Ffamily%3DArchitects%2BDaughter;fontSize=16;endArrow=none;endFill=0;labelBackgroundColor=none;fontColor=default;sketch=1;curveFitting=1;jiggle=2;strokeColor=#0B4D6A;" edge="1" source="d1IbL5sfaYxFfICt-fRD-75" target="d1IbL5sfaYxFfICt-fRD-73" parent="WIyWlLk6GJQsqaUBKTNV-1">
          <mxGeometry relative="1" as="geometry">
            <Array as="points">
              <mxPoint x="792" y="568" />
              <mxPoint x="792" y="764" />
            </Array>
          </mxGeometry>
        </mxCell>
        <mxCell id="d1IbL5sfaYxFfICt-fRD-75" value="h_fim" style="ellipse;whiteSpace=wrap;html=1;rounded=0;labelBackgroundColor=none;sketch=1;curveFitting=1;jiggle=2;fillColor=#09555B;strokeColor=#BAC8D3;fontColor=#EEEEEE;" vertex="1" parent="WIyWlLk6GJQsqaUBKTNV-1">
          <mxGeometry x="688" y="548" width="68" height="30" as="geometry" />
        </mxCell>
        <mxCell id="d1IbL5sfaYxFfICt-fRD-76" style="edgeStyle=orthogonalEdgeStyle;rounded=0;hachureGap=4;orthogonalLoop=1;jettySize=auto;html=1;fontFamily=Architects Daughter;fontSource=https%3A%2F%2Ffonts.googleapis.com%2Fcss%3Ffamily%3DArchitects%2BDaughter;fontSize=16;endArrow=none;endFill=0;labelBackgroundColor=none;fontColor=default;sketch=1;curveFitting=1;jiggle=2;strokeColor=#0B4D6A;" edge="1" source="d1IbL5sfaYxFfICt-fRD-77" target="d1IbL5sfaYxFfICt-fRD-73" parent="WIyWlLk6GJQsqaUBKTNV-1">
          <mxGeometry relative="1" as="geometry">
            <Array as="points">
              <mxPoint x="792" y="513" />
              <mxPoint x="792" y="764" />
            </Array>
          </mxGeometry>
        </mxCell>
        <mxCell id="d1IbL5sfaYxFfICt-fRD-77" value="h_inÃ­cio" style="ellipse;whiteSpace=wrap;html=1;rounded=0;labelBackgroundColor=none;sketch=1;curveFitting=1;jiggle=2;fillColor=#09555B;strokeColor=#BAC8D3;fontColor=#EEEEEE;" vertex="1" parent="WIyWlLk6GJQsqaUBKTNV-1">
          <mxGeometry x="692.4499999999999" y="498.54" width="66.87" height="28.46" as="geometry" />
        </mxCell>
        <mxCell id="d1IbL5sfaYxFfICt-fRD-78" style="edgeStyle=orthogonalEdgeStyle;rounded=0;hachureGap=4;orthogonalLoop=1;jettySize=auto;html=1;fontFamily=Architects Daughter;fontSource=https%3A%2F%2Ffonts.googleapis.com%2Fcss%3Ffamily%3DArchitects%2BDaughter;fontSize=16;endArrow=none;endFill=0;labelBackgroundColor=none;fontColor=default;sketch=1;curveFitting=1;jiggle=2;strokeColor=#0B4D6A;" edge="1" source="d1IbL5sfaYxFfICt-fRD-79" target="d1IbL5sfaYxFfICt-fRD-73" parent="WIyWlLk6GJQsqaUBKTNV-1">
          <mxGeometry relative="1" as="geometry">
            <Array as="points">
              <mxPoint x="792" y="463" />
              <mxPoint x="792" y="764" />
            </Array>
          </mxGeometry>
        </mxCell>
        <mxCell id="d1IbL5sfaYxFfICt-fRD-79" value="assunto" style="ellipse;whiteSpace=wrap;html=1;rounded=0;labelBackgroundColor=none;sketch=1;curveFitting=1;jiggle=2;fillColor=#09555B;strokeColor=#BAC8D3;fontColor=#EEEEEE;" vertex="1" parent="WIyWlLk6GJQsqaUBKTNV-1">
          <mxGeometry x="689.1299999999998" y="447.54" width="70" height="30" as="geometry" />
        </mxCell>
        <mxCell id="d1IbL5sfaYxFfICt-fRD-80" style="edgeStyle=orthogonalEdgeStyle;rounded=0;hachureGap=4;orthogonalLoop=1;jettySize=auto;html=1;fontFamily=Architects Daughter;fontSource=https%3A%2F%2Ffonts.googleapis.com%2Fcss%3Ffamily%3DArchitects%2BDaughter;fontSize=16;endArrow=none;endFill=0;labelBackgroundColor=none;fontColor=default;sketch=1;curveFitting=1;jiggle=2;strokeColor=#0B4D6A;" edge="1" source="d1IbL5sfaYxFfICt-fRD-81" target="d1IbL5sfaYxFfICt-fRD-73" parent="WIyWlLk6GJQsqaUBKTNV-1">
          <mxGeometry relative="1" as="geometry">
            <Array as="points">
              <mxPoint x="563" y="473" />
              <mxPoint x="563" y="602" />
              <mxPoint x="792" y="602" />
              <mxPoint x="792" y="764" />
            </Array>
          </mxGeometry>
        </mxCell>
        <mxCell id="d1IbL5sfaYxFfICt-fRD-81" value="data" style="ellipse;whiteSpace=wrap;html=1;rounded=0;labelBackgroundColor=none;sketch=1;curveFitting=1;jiggle=2;fillColor=#09555B;strokeColor=#BAC8D3;fontColor=#EEEEEE;" vertex="1" parent="WIyWlLk6GJQsqaUBKTNV-1">
          <mxGeometry x="593.4099999999999" y="458.96000000000004" width="54" height="27" as="geometry" />
        </mxCell>
        <mxCell id="d1IbL5sfaYxFfICt-fRD-82" style="edgeStyle=orthogonalEdgeStyle;rounded=0;hachureGap=4;orthogonalLoop=1;jettySize=auto;html=1;fontFamily=Architects Daughter;fontSource=https%3A%2F%2Ffonts.googleapis.com%2Fcss%3Ffamily%3DArchitects%2BDaughter;fontSize=16;endArrow=none;endFill=0;labelBackgroundColor=none;fontColor=default;sketch=1;curveFitting=1;jiggle=2;strokeColor=#0B4D6A;" edge="1" source="d1IbL5sfaYxFfICt-fRD-83" target="d1IbL5sfaYxFfICt-fRD-73" parent="WIyWlLk6GJQsqaUBKTNV-1">
          <mxGeometry relative="1" as="geometry">
            <Array as="points">
              <mxPoint x="562" y="563" />
              <mxPoint x="562" y="600" />
              <mxPoint x="792" y="600" />
              <mxPoint x="792" y="764" />
            </Array>
          </mxGeometry>
        </mxCell>
        <mxCell id="d1IbL5sfaYxFfICt-fRD-83" value="m_fim" style="ellipse;whiteSpace=wrap;html=1;rounded=0;labelBackgroundColor=none;sketch=1;curveFitting=1;jiggle=2;fillColor=#09555B;strokeColor=#BAC8D3;fontColor=#EEEEEE;" vertex="1" parent="WIyWlLk6GJQsqaUBKTNV-1">
          <mxGeometry x="593.4099999999999" y="548.0000000000001" width="64" height="30" as="geometry" />
        </mxCell>
        <mxCell id="d1IbL5sfaYxFfICt-fRD-84" style="edgeStyle=orthogonalEdgeStyle;rounded=0;hachureGap=4;orthogonalLoop=1;jettySize=auto;html=1;fontFamily=Architects Daughter;fontSource=https%3A%2F%2Ffonts.googleapis.com%2Fcss%3Ffamily%3DArchitects%2BDaughter;fontSize=16;labelBackgroundColor=none;fontColor=default;endArrow=none;endFill=0;sketch=1;curveFitting=1;jiggle=2;strokeColor=#0B4D6A;" edge="1" source="d1IbL5sfaYxFfICt-fRD-85" target="d1IbL5sfaYxFfICt-fRD-73" parent="WIyWlLk6GJQsqaUBKTNV-1">
          <mxGeometry relative="1" as="geometry">
            <Array as="points">
              <mxPoint x="563" y="514" />
              <mxPoint x="563" y="600" />
              <mxPoint x="792" y="600" />
              <mxPoint x="792" y="764" />
            </Array>
          </mxGeometry>
        </mxCell>
        <mxCell id="d1IbL5sfaYxFfICt-fRD-85" value="m_inÃ­cio" style="ellipse;whiteSpace=wrap;html=1;rounded=0;labelBackgroundColor=none;sketch=1;curveFitting=1;jiggle=2;fillColor=#09555B;strokeColor=#BAC8D3;fontColor=#EEEEEE;" vertex="1" parent="WIyWlLk6GJQsqaUBKTNV-1">
          <mxGeometry x="591.9999999999999" y="497.53999999999996" width="64" height="32" as="geometry" />
        </mxCell>
        <mxCell id="d1IbL5sfaYxFfICt-fRD-86" style="edgeStyle=orthogonalEdgeStyle;rounded=0;hachureGap=4;orthogonalLoop=1;jettySize=auto;html=1;fontFamily=Architects Daughter;fontSource=https%3A%2F%2Ffonts.googleapis.com%2Fcss%3Ffamily%3DArchitects%2BDaughter;fontSize=16;endArrow=none;endFill=0;labelBackgroundColor=none;fontColor=default;sketch=1;curveFitting=1;jiggle=2;strokeColor=#0B4D6A;" edge="1" source="d1IbL5sfaYxFfICt-fRD-87" target="d1IbL5sfaYxFfICt-fRD-73" parent="WIyWlLk6GJQsqaUBKTNV-1">
          <mxGeometry relative="1" as="geometry">
            <Array as="points">
              <mxPoint x="792" y="412" />
              <mxPoint x="792" y="764" />
            </Array>
          </mxGeometry>
        </mxCell>
        <mxCell id="d1IbL5sfaYxFfICt-fRD-87" value="foi_realizada" style="ellipse;whiteSpace=wrap;html=1;rounded=0;labelBackgroundColor=none;sketch=1;curveFitting=1;jiggle=2;fillColor=#09555B;strokeColor=#BAC8D3;fontColor=#EEEEEE;" vertex="1" parent="WIyWlLk6GJQsqaUBKTNV-1">
          <mxGeometry x="664.93" y="394.53999999999996" width="100" height="34" as="geometry" />
        </mxCell>
        <mxCell id="d1IbL5sfaYxFfICt-fRD-94" style="edgeStyle=orthogonalEdgeStyle;rounded=0;sketch=1;hachureGap=4;jiggle=2;curveFitting=1;orthogonalLoop=1;jettySize=auto;html=1;strokeColor=#0B4D6A;fontFamily=Architects Daughter;fontSource=https%3A%2F%2Ffonts.googleapis.com%2Fcss%3Ffamily%3DArchitects%2BDaughter;fontSize=16;endArrow=none;endFill=0;labelBackgroundColor=none;fontColor=default;" edge="1" parent="WIyWlLk6GJQsqaUBKTNV-1" source="d1IbL5sfaYxFfICt-fRD-92" target="d1IbL5sfaYxFfICt-fRD-73">
          <mxGeometry relative="1" as="geometry" />
        </mxCell>
        <mxCell id="d1IbL5sfaYxFfICt-fRD-96" value="N" style="edgeLabel;html=1;align=center;verticalAlign=middle;resizable=0;points=[];fontSize=20;fontFamily=Architects Daughter;fontColor=#EEEEEE;labelBackgroundColor=none;" vertex="1" connectable="0" parent="d1IbL5sfaYxFfICt-fRD-94">
          <mxGeometry x="-0.5541" y="1" relative="1" as="geometry">
            <mxPoint x="13" y="1" as="offset" />
          </mxGeometry>
        </mxCell>
        <mxCell id="d1IbL5sfaYxFfICt-fRD-92" value="&lt;font style=&quot;font-size: 16px;&quot;&gt;COMPÃE&lt;/font&gt;" style="rhombus;whiteSpace=wrap;html=1;hachureGap=4;fontFamily=Architects Daughter;fontSource=https%3A%2F%2Ffonts.googleapis.com%2Fcss%3Ffamily%3DArchitects%2BDaughter;fontSize=20;labelBackgroundColor=none;rounded=0;sketch=1;curveFitting=1;jiggle=2;fillColor=#09555B;strokeColor=#BAC8D3;fontColor=#EEEEEE;" vertex="1" parent="WIyWlLk6GJQsqaUBKTNV-1">
          <mxGeometry x="636.93" y="635" width="122.39" height="66" as="geometry" />
        </mxCell>
      </root>
    </mxGraphModel>
  </diagram>
</mxfile>
